<?xml version="1.0" encoding="UTF-8" standalone="no"?>
<!-- Created with Inkscape (http://www.inkscape.org/) -->

<svg
   width="138.79912mm"
   height="199.24199mm"
   viewBox="0 0 138.79912 199.24199"
   version="1.1"
   id="svg1"
   xml:space="preserve"
   inkscape:version="1.4 (86a8ad7, 2024-10-11)"
   sodipodi:docname="Dibujo_14.svg"
   xmlns:inkscape="http://www.inkscape.org/namespaces/inkscape"
   xmlns:sodipodi="http://sodipodi.sourceforge.net/DTD/sodipodi-0.dtd"
   xmlns="http://www.w3.org/2000/svg"
   xmlns:svg="http://www.w3.org/2000/svg"><sodipodi:namedview
     id="namedview1"
     pagecolor="#ffffff"
     bordercolor="#000000"
     borderopacity="0.25"
     inkscape:showpageshadow="2"
     inkscape:pageopacity="0.0"
     inkscape:pagecheckerboard="0"
     inkscape:deskcolor="#d1d1d1"
     inkscape:document-units="mm"
     inkscape:zoom="0.89323816"
     inkscape:cx="232.30087"
     inkscape:cy="397.99016"
     inkscape:window-width="1280"
     inkscape:window-height="953"
     inkscape:window-x="-8"
     inkscape:window-y="-8"
     inkscape:window-maximized="1"
     inkscape:current-layer="svg1"><inkscape:page
       x="0"
       y="0"
       width="138.79912"
       height="199.24199"
       id="page1"
       margin="0"
       bleed="0" /></sodipodi:namedview><defs
     id="defs1" /><path
     style="fill:#000000"
     d="m 82.91084,199.21084 c -0.0226,-0.0171 -0.0534,-0.0314 -0.0684,-0.0317 -0.015,-3.7e-4 -0.0768,-0.034 -0.13729,-0.0747 -0.0605,-0.0407 -0.12024,-0.0741 -0.13277,-0.0741 -0.0286,0 -0.12217,-0.0992 -0.15964,-0.16931 -0.0159,-0.0297 -0.21019,-1.41309 -0.44366,-3.15895 -0.22845,-1.70833 -0.41926,-3.1095 -0.42402,-3.11371 -0.005,-0.004 -2.25151,-0.7105 -4.99277,-1.56952 -2.74126,-0.85901 -5.03173,-1.58744 -5.08993,-1.61872 -0.15919,-0.0856 -15.201548,-8.77698 -15.315238,-8.84908 -0.0865,-0.0548 -14.64572,-14.66386 -16.37858,-16.43455 -0.77227,-0.78914 -0.84133,-0.86618 -0.94971,-1.0594 -0.0444,-0.0791 -0.12022,-0.21448 -0.16855,-0.30079 -0.0483,-0.0863 -0.0971,-0.16807 -0.1084,-0.18167 -0.0354,-0.0426 -0.11556,-0.34619 -0.54117,-2.04871 -0.46023,-1.84097 -0.40764,-1.69067 -0.62787,-1.79463 -0.0867,-0.0409 -0.11099,-0.0441 -0.17989,-0.0237 -0.0438,0.013 -0.10575,0.029 -0.13765,0.0356 -0.0322,0.007 -0.14825,0.0943 -0.26069,0.19682 -0.11149,0.10166 -0.22825,0.19652 -0.25947,0.2108 -0.0999,0.0457 -15.71351,4.05449 -15.83272,4.06503 -0.082,0.007 -0.13625,-2.4e-4 -0.19047,-0.0263 -0.2555,-0.12274 -0.31439,-0.15612 -0.38348,-0.21733 -0.0422,-0.0374 -0.0923,-0.10409 -0.11124,-0.14815 -0.0329,-0.0765 -2.71202,-20.65484 -2.70048,-20.74236 0.003,-0.0201 -0.007,-0.061 -0.0216,-0.091 -0.025,-0.0516 0.0574,-0.1937 1.60747,-2.76955 l 1.63386,-2.71516 -0.53539,-4.21914 -0.53539,-4.21915 0.3833,-16.36625 0.3833,-16.366243 0.0531,-0.13334 c 0.10547,-0.26475 0.2612,-0.41417 0.6597,-0.63296 0.38654,-0.21223 0.56578,-0.37544 0.65768,-0.59885 l 0.0566,-0.13753 0.13224,-6.17882 0.13224,-6.17883 -0.63445,-1.83183 c -0.34895,-1.00751 -0.63745,-1.83482 -0.6411,-1.83848 -0.004,-0.004 -2.68622,2.17742 -5.96126,4.84684 -3.27503,2.66941 -6.0102401,4.8986 -6.0782401,4.95375 l -0.12363,0.10027 h -2.49541 c -1.64949,0 -2.4954,-0.007 -2.4954,-0.0212 0,-0.014 0.84511,-0.0213 2.49205,-0.0216 l 2.49206,-4.7e-4 6.0740501,-4.95237 c 3.88758,-3.16967 6.07177,-4.96384 6.06772,-4.98423 -0.003,-0.0175 -0.88307,-2.56232 -1.95463,-5.65508 l -1.9483,-5.62322 0.0152,-1.15421 c 0.008,-0.63482 0.0238,-1.22088 0.0343,-1.30236 0.0105,-0.0815 0.032,-0.71993 0.0478,-1.41877 0.0272,-1.20253 0.031,-1.27512 0.0715,-1.35453 0.053,-0.1038 0.0852,-0.13211 0.26099,-0.2291 0.1115,-0.0615 0.16233,-0.077 0.2525,-0.077 0.10936,0 0.14702,0.0196 1.20431,0.62814 0.60028,0.34547 1.11086,0.64051 1.13464,0.65565 0.0391,0.0249 0.40438,-0.17022 3.86939,-2.06732 3.03189,-1.65996 3.84167,-2.09483 3.90083,-2.09483 0.0411,0 0.13315,0.0279 0.20466,0.062 0.0715,0.0341 0.1562,0.072 0.18821,0.0841 0.032,0.0122 0.0582,0.0351 0.0582,0.0511 0,0.0159 0.02,0.0471 0.0445,0.0693 0.10394,0.0941 0.10416,-0.11707 -0.004,4.1251 -0.056,2.1884 -0.10218,4.08966 -0.10271,4.22503 l -9.6e-4,0.24611 0.51322,0.29307 c 0.42218,0.24108 0.5406,0.31928 0.6675,0.44082 0.21442,0.20536 0.29017,0.36029 0.29017,0.59348 0,0.0934 -0.008,0.90797 -0.0185,1.8101 -0.0165,1.45542 -0.0149,1.64897 0.014,1.71766 0.0179,0.0426 0.10979,0.1606 0.20423,0.26229 l 0.1717,0.18488 0.98892,0.56506 c 1.17846,0.67337 1.18733,0.68016 1.31549,1.00689 0.0805,0.2052 0.0861,0.23354 0.0861,0.43267 0,0.21155 0.001,0.21661 0.16885,0.69965 0.0929,0.26761 0.17989,0.50776 0.19339,0.53365 0.0341,0.0654 0.24027,0.33947 0.28054,0.37289 0.0354,0.0293 0.22007,0.14453 0.36779,0.22936 l 0.0899,0.0517 6.1e-4,-0.25049 c 3.4e-4,-0.13777 0.0186,-1.09772 0.0406,-2.13321 0.0447,-2.10268 0.051,-1.97798 -0.10222,-2.02388 -0.072,-0.0216 -0.0893,-0.0194 -0.14273,0.0182 -0.0334,0.0235 -0.47986,0.26389 -0.99203,0.53422 -0.51217,0.27032 -0.98048,0.51921 -1.04069,0.55308 -0.0602,0.0339 -0.11487,0.0528 -0.12146,0.0422 -0.007,-0.0107 0.44487,-0.26094 1.00325,-0.55618 0.55837,-0.29524 1.01541,-0.54175 1.01563,-0.54779 2.3e-4,-0.006 -0.0543,-0.0411 -0.12128,-0.0778 l -0.1217,-0.0668 -0.82539,0.43814 c -0.45397,0.24097 -0.91789,0.48758 -1.03093,0.54801 -0.11305,0.0604 -0.21056,0.10176 -0.21669,0.0918 -0.006,-0.01 0.28159,-0.17297 0.6394,-0.36231 0.3578,-0.18934 0.86342,-0.45804 1.1236,-0.59709 0.34361,-0.18366 0.4794,-0.24648 0.49629,-0.22959 0.0128,0.0128 0.0454,0.0232 0.0724,0.0232 0.027,0 0.0867,0.0248 0.13253,0.0552 0.0459,0.0304 0.11452,0.0708 0.15256,0.0899 0.038,0.0191 0.0915,0.0681 0.11884,0.10883 0.0469,0.0699 0.049,0.0873 0.0376,0.30689 -0.0172,0.333 -0.0854,4.05069 -0.0744,4.0608 0.0328,0.0303 22.12415,12.77326 22.13136,12.76604 0.005,-0.005 -0.0491,-0.17562 -0.12014,-0.37922 -0.071,-0.20361 -0.12917,-0.3804 -0.12917,-0.39288 0,-0.0125 -0.01,-0.0227 -0.0212,-0.0227 -0.0129,0 -0.0212,-0.0991 -0.0212,-0.25482 0,-0.35516 0.0283,-0.40809 0.29833,-0.55706 0.11137,-0.0615 0.16237,-0.077 0.25221,-0.077 0.10874,0 0.14791,0.0203 1.14082,0.58976 1.02885,0.59013 1.11322,0.63778 1.12925,0.63778 0.045,0 0.0574,-0.29108 0.0751,-1.7598 l 0.0193,-1.60106 0.0616,-0.0918 c 0.0429,-0.0639 0.10974,-0.11944 0.21976,-0.18272 0.14476,-0.0832 0.16888,-0.0904 0.28512,-0.085 0.12666,0.006 0.14148,0.0143 5.77776,3.26219 3.107918,1.79092 5.684098,3.27927 5.724838,3.30744 0.25358,0.17539 0.31261,0.24876 0.43472,0.54036 l 0.0679,0.16209 -0.04,1.2771 c -0.022,0.7024 -0.0375,1.34578 -0.0344,1.42974 l 0.006,0.15265 5.33331,-2.90241 c 2.93332,-1.59633 5.35712,-2.90623 5.38622,-2.9109 0.0633,-0.0102 0.40831,0.18863 0.46884,0.27015 0.10111,0.13617 0.10556,-0.24076 -0.0914,7.73526 -0.10148,4.109073 -0.18505,7.625953 -0.18572,7.815273 l -0.001,0.34423 0.12169,-0.0615 c 0.0669,-0.0338 1.19168,-0.64347 2.49945,-1.35482 1.83101,-0.99597 2.39442,-1.29337 2.45025,-1.29337 0.0987,0 0.35149,0.13074 0.46296,0.23948 l 0.0908,0.0886 -0.48921,21.75126 -0.4892,21.75126 0.33539,4.83126 c 0.55838,8.0434 0.51284,7.42603 0.5537,7.50647 0.0396,0.0779 5.59631,8.38231 5.77233,8.6266 0.0967,0.13425 0.11127,0.16999 0.155,0.38096 0.0621,0.29982 0.0616,0.36672 -0.004,0.50218 l -0.0541,0.11159 3.37956,13.04787 c 3.28875,12.69729 3.37888,13.05043 3.35469,13.14311 -0.0137,0.0524 -0.0559,0.14286 -0.0939,0.20106 l -0.069,0.10582 0.30173,1.22754 c 0.16596,0.67514 0.32215,1.30025 0.3471,1.38913 0.0559,0.19901 0.055,0.20112 -0.19133,0.45435 -0.20779,0.21362 -0.30375,0.26238 -0.51638,0.26238 -0.17091,0 -0.0368,0.0401 -2.89773,-0.86641 -1.32486,-0.41979 -2.42962,-0.76318 -2.45502,-0.76309 -0.0254,9e-5 -2.46934,0.62391 -5.43098,1.38627 -4.00832,1.03179 -5.41522,1.38611 -5.50387,1.38611 -0.0719,0 -0.13534,-0.0123 -0.16016,-0.0311 z m 5.59252,-1.37774 c 2.91949,-0.75157 5.54625,-1.42761 5.83725,-1.50231 0.291,-0.0747 1.44993,-0.37291 2.57538,-0.66271 l 2.04629,-0.52689 0.1788,-0.15603 c 0.0983,-0.0858 0.17225,-0.16079 0.16425,-0.16661 -0.0218,-0.0158 -0.98048,-3.79032 -0.96633,-3.80447 0.007,-0.007 0.0157,-0.008 0.0201,-0.003 0.004,0.005 0.22431,0.85645 0.48877,1.89245 0.26446,1.036 0.48385,1.88675 0.48753,1.89056 0.0169,0.0174 0.18168,-0.25681 0.20344,-0.33855 0.0235,-0.0883 -0.0997,-0.57093 -3.3122,-12.9808 -1.83514,-7.08903 -3.34414,-12.90733 -3.35335,-12.92957 -0.0145,-0.035 -0.0244,-0.0273 -0.0736,0.0567 -0.0313,0.0534 -0.0865,0.12027 -0.12271,0.1486 l -0.0658,0.0515 0.48198,1.86546 c 0.40906,1.58325 0.49575,1.94864 0.44714,1.88477 -0.004,-0.005 -0.21961,-0.83741 -0.47981,-1.85012 -0.26021,-1.01272 -0.47871,-1.84807 -0.48556,-1.85633 -0.0127,-0.0154 -12.56857,9.2949 -12.60176,9.34434 -0.0111,0.0165 0.51469,4.09773 1.32987,10.32283 l 1.3482,10.29552 0.0711,0.14869 c 0.06,0.12562 0.0852,0.1558 0.16219,0.19446 0.0565,0.0284 0.13287,0.0463 0.20096,0.0471 0.0795,9.5e-4 1.57548,-0.376 5.41796,-1.36518 z m 9.35443,-8.65726 c -0.14202,-0.5198 -0.17297,-0.66356 -0.13351,-0.62019 0.0112,0.0123 0.3306,1.17405 0.3306,1.20254 0,0.0128 -0.007,0.0231 -0.0159,0.023 -0.009,-1e-4 -0.0903,-0.27253 -0.18122,-0.60539 z m -0.65682,-2.45437 c -0.12434,-0.51859 -0.15061,-0.66453 -0.11178,-0.6209 0.0106,0.0119 0.28845,1.16825 0.28845,1.2004 0,0.0139 -0.007,0.0253 -0.0159,0.0251 -0.009,-1.2e-4 -0.0811,-0.27222 -0.16079,-0.60465 z m -1.26931,-4.93181 c -0.42861,-1.69468 -0.77385,-3.08668 -0.76719,-3.09334 0.007,-0.007 0.0157,-0.008 0.0201,-0.003 0.0108,0.012 1.55816,6.12319 1.55816,6.15392 0,0.0134 -0.007,0.0242 -0.0159,0.0241 -0.009,-1.1e-4 -0.36656,-1.38675 -0.79518,-3.08142 z m -1.27036,-4.93082 c -0.12434,-0.51858 -0.15061,-0.66452 -0.11178,-0.62089 0.0106,0.0119 0.28844,1.16824 0.28844,1.20039 0,0.014 -0.007,0.0253 -0.0159,0.0252 -0.009,-1.3e-4 -0.0811,-0.27222 -0.16079,-0.60466 z m -0.65535,-2.45577 c -0.14202,-0.5198 -0.17297,-0.66356 -0.1335,-0.6202 0.0112,0.0123 0.33059,1.17406 0.33059,1.20255 0,0.0128 -0.007,0.0231 -0.0159,0.023 -0.009,-1.1e-4 -0.0903,-0.27253 -0.18122,-0.60539 z m -11.33062,24.55946 c -0.0692,-0.128 -0.2606,-0.28479 -0.2606,-0.21352 0,0.0618 0.12097,0.23887 0.16356,0.23941 0.0206,2.5e-4 0.0613,0.0191 0.0904,0.0418 0.0291,0.0228 0.0559,0.0416 0.0595,0.0419 0.004,2.6e-4 -0.0202,-0.0491 -0.0529,-0.1096 z m -0.0701,-0.20631 c 0,-0.0815 -2.69061,-20.52663 -2.70443,-20.55014 -0.024,-0.0408 -0.20921,-0.14263 -0.227,-0.12484 -0.008,0.008 0.5969,4.59359 1.34382,10.19061 0.74692,5.59702 1.36345,10.22207 1.37006,10.27789 0.0105,0.0889 0.0228,0.10915 0.0989,0.16308 0.093,0.0659 0.11863,0.0753 0.11863,0.0434 z m 16.98811,-0.74071 c 0.10375,-0.0471 0.17584,-0.16615 0.17584,-0.29037 0,-0.0607 -0.6449,-2.595 -0.66875,-2.62802 -0.003,-0.004 -0.0324,0.0129 -0.0656,0.0375 -0.0425,0.0314 -0.77869,0.22957 -2.47986,0.66745 -1.33068,0.34253 -2.42926,0.62605 -2.44128,0.63006 -0.0181,0.006 4.56129,1.46688 4.96766,1.58472 0.17433,0.0505 0.39896,0.05 0.51199,-0.001 z m 0.46147,-0.44829 c 0.007,-0.0285 0.003,-0.0795 -0.0103,-0.11326 l -0.0233,-0.0614 -0.10278,0.10456 c -0.0977,0.0994 -0.10322,0.11125 -0.11164,0.23947 l -0.009,0.1349 0.12197,-0.1262 c 0.0671,-0.0694 0.12783,-0.14954 0.13499,-0.17806 z m -0.0528,-0.23192 c 0,-0.042 -0.58562,-2.42693 -0.60849,-2.47814 -0.0132,-0.0296 -0.0362,-0.0165 -0.1389,0.0797 l -0.12307,0.11519 0.31975,1.22189 c 0.17586,0.67204 0.32508,1.23962 0.33159,1.26128 0.0102,0.0338 0.0265,0.0249 0.11548,-0.0627 0.057,-0.0562 0.10364,-0.11791 0.10364,-0.13725 z m -18.46488,-4.87129 c -0.007,-0.0378 -0.44079,-3.28789 -0.96505,-7.22236 -0.64177,-4.8164 -0.96208,-7.16049 -0.98038,-7.17474 -0.015,-0.0116 -0.42506,-0.8069 -0.91134,-1.76723 -0.48629,-0.96034 -0.89085,-1.75338 -0.89904,-1.76231 -0.008,-0.009 -0.43733,0.98871 -0.95366,2.21698 -0.80064,1.90456 -0.9737,2.29954 -0.9737,2.2223 0,-0.006 0.41574,-0.99888 0.92387,-2.20639 0.50812,-1.20752 0.93373,-2.2209 0.94578,-2.25196 0.0172,-0.0442 0.0134,-0.0754 -0.0173,-0.14357 -0.0216,-0.0479 -0.0464,-0.0796 -0.0552,-0.0705 -0.009,0.009 -0.43648,1.03559 -0.9505,2.28106 -0.51402,1.24546 -0.9386,2.2685 -0.94351,2.27341 -0.0546,0.0546 0.10089,-0.3378 0.92064,-2.32339 l 0.95315,-2.30874 -1.62102,-3.20162 c -0.89156,-1.76089 -1.64374,-3.24244 -1.67151,-3.29233 -0.0278,-0.0499 -0.0505,-0.1075 -0.0505,-0.12804 0,-0.0205 -0.009,-0.0464 -0.0193,-0.0575 -0.0106,-0.0111 -0.25994,-1.91744 -0.55401,-4.23639 l -0.53467,-4.21629 0.38265,-16.3767 0.38265,-16.37671 0.0771,-0.19048 c 0.11121,-0.27492 0.18946,-0.34657 0.63824,-0.58439 0.60361,-0.31987 0.69616,-0.45818 0.72074,-1.07701 0.005,-0.13387 0.0652,-2.88615 0.13302,-6.11617 l 0.12337,-5.87279 -2.61816,-7.50313 c -1.43999,-4.12673 -2.66943,-7.665053 -2.73209,-7.862943 -0.0627,-0.19788 -0.12388,-0.37069 -0.13605,-0.384 -0.0122,-0.0133 -1.08625,-0.6264 -2.38684,-1.36241 -1.3006,-0.73601 -2.359918,-1.34596 -2.354058,-1.35545 0.006,-0.009 0.0748,0.019 0.153088,0.0633 0.0783,0.0443 1.14592,0.64896 2.37242,1.34366 1.2265,0.6947 2.2321,1.26024 2.23466,1.25676 0.003,-0.003 0.0241,-1.03015 0.0479,-2.2815 l 0.0432,-2.27517 -0.083,-0.21352 c -0.0606,-0.15594 -0.10415,-0.23373 -0.16146,-0.28852 -0.0683,-0.0653 -11.219188,-6.53245 -11.560758,-6.70488 -0.0687,-0.0347 -0.13903,-0.0631 -0.15628,-0.0631 -0.0623,0 -0.12957,0.0459 -0.17993,0.12272 l -0.0513,0.0783 -0.0172,1.22754 c -0.0299,2.13959 -0.0297,2.1354 -0.0889,2.20927 -0.0531,0.0664 -0.18411,0.1294 -0.26888,0.1294 -0.0756,0 -0.21544,-0.0754 -1.07449,-0.57947 -1.12459,-0.65984 -1.18953,-0.69504 -1.23237,-0.66794 -0.0167,0.0106 -0.0548,0.0194 -0.0847,0.0195 -0.0887,5.3e-4 -0.14675,0.12814 -0.14675,0.32259 v 0.15777 l 2.35231,1.35261 c 1.29377,0.74393 2.36757,1.36421 2.38623,1.37839 0.0289,0.022 0.0292,0.0258 0.002,0.0259 -0.0175,7e-5 -1.08888,-0.60852 -2.38094,-1.35243 -1.74415,-1.00421 -2.3511,-1.34404 -2.35658,-1.31945 -0.004,0.0182 0.004,0.0551 0.0187,0.0819 0.0174,0.0325 0.81489,0.49952 2.38724,1.39796 1.29861,0.74202 2.34981,1.3529 2.33599,1.35751 -0.0138,0.005 -1.06909,-0.58822 -2.34504,-1.3174 -1.27595,-0.72917 -2.32387,-1.32181 -2.32871,-1.31698 -0.005,0.005 0.0628,0.21612 0.15037,0.4695 0.0875,0.25339 0.15915,0.49141 0.15915,0.52894 0,0.088 -0.0622,0.14638 -0.14336,0.13446 -0.0332,-0.005 -5.13595,-2.93348 -11.33942,-6.50803 -6.20347,-3.57454 -11.3076,-6.51392 -11.34253,-6.53195 -0.11353,-0.0586 -0.4249,-0.39602 -0.49206,-0.53318 -0.0342,-0.0699 -0.1319,-0.33027 -0.21712,-0.57871 -0.0852,-0.24845 -0.17005,-0.46922 -0.18849,-0.4906 -0.0185,-0.0214 -1.10713,-0.65985 -2.41931,-1.41881 -1.31217,-0.75897 -2.38094,-1.38775 -2.37503,-1.3973 0.006,-0.01 0.0652,0.0144 0.13181,0.0532 1.69642,0.98894 4.66914,2.69856 4.67759,2.69011 0.006,-0.006 9.6e-4,-0.0114 -0.0118,-0.0114 -0.0153,0 -0.0254,-0.10173 -0.03,-0.30159 -0.006,-0.28103 -0.0109,-0.30991 -0.0667,-0.42359 -0.033,-0.0671 -0.0949,-0.15537 -0.13757,-0.19617 -0.0427,-0.0408 -0.11099,-0.10631 -0.15173,-0.14559 -0.06,-0.0579 -1.71758,-1.02852 -1.98941,-1.16498 -0.0407,-0.0205 -0.12359,-0.0854 -0.1841,-0.14424 -0.0898,-0.0874 -0.12459,-0.14387 -0.18924,-0.30724 l -0.0792,-0.20019 0.0381,-1.52651 c 0.021,-0.83959 0.0392,-1.59795 0.0404,-1.68525 0.002,-0.13564 -0.009,-0.18777 -0.0752,-0.35831 -0.0555,-0.1429 -0.10041,-0.22192 -0.15808,-0.27825 -0.0509,-0.0497 -2.17594,-1.28563 -5.77992,-3.36154 -3.13466,-1.80557 -5.75558,-3.31123 -5.82428,-3.3459 -0.074,-0.0374 -0.13017,-0.0545 -0.13782,-0.0421 -0.007,0.0115 -0.0344,0.0209 -0.0607,0.0209 -0.0341,0 -0.0621,0.0255 -0.0977,0.0889 l -0.0499,0.0889 -0.0375,1.84239 c -0.0206,1.01332 -0.038,2.00516 -0.0386,2.20409 l -0.001,0.36169 2.23808,1.29849 c 1.23095,0.71417 2.29494,1.33168 2.36443,1.37224 0.0695,0.0406 0.11481,0.0776 0.10071,0.0823 -0.0186,0.006 -3.48394,-1.9883 -4.62522,-2.66204 l -0.0807,-0.0477 0.007,0.0873 0.007,0.0873 2.35978,1.35654 c 1.29788,0.7461 2.3693,1.36657 2.38094,1.37883 0.0146,0.0153 0.008,0.0191 -0.0212,0.0121 -0.0233,-0.006 -1.08863,-0.61218 -2.36743,-1.34799 -1.2788,-0.73582 -2.32919,-1.33375 -2.33419,-1.32875 -0.0113,0.0113 3.99901,11.56952 4.01442,11.56991 0.009,2.4e-4 2.24108,-1.81194 2.29208,-1.8613 0.01,-0.009 -0.002,-0.0559 -0.0265,-0.10335 -0.0477,-0.0936 -0.0579,-0.26736 -0.0241,-0.41282 0.0211,-0.0908 0.0694,-0.15025 0.2201,-0.27064 0.0918,-0.0733 0.11484,-0.0818 0.22222,-0.0817 0.15997,1.5e-4 0.27234,0.0338 0.36938,0.11064 0.0982,0.0777 0.18436,0.24108 0.18402,0.34886 -6.8e-4,0.21597 -0.11762,0.43371 -0.27645,0.51474 -0.13922,0.071 -0.44448,0.0406 -0.54991,-0.0548 -0.0217,-0.0197 -0.0529,-0.0306 -0.0693,-0.0244 -0.0494,0.019 -2.32104,1.87785 -2.32104,1.89933 0,0.011 0.28195,0.83195 0.62654,1.82442 0.3446,0.99246 0.66951,1.92828 0.72203,2.07961 3.42485,9.86867 5.49289,15.81322 5.50571,15.82603 0.009,0.009 1.034,0.60055 2.27775,1.31452 2.06026,1.18267 2.36842,1.370173 2.24701,1.367133 -0.0135,-3.4e-4 -1.02458,-0.580493 -2.2468,-1.289223 -1.22222,-0.70874 -2.22499,-1.28585 -2.22838,-1.28248 -0.0159,0.0158 3.62427,28.109003 3.64392,28.121923 0.0123,0.008 0.0153,0.0218 0.007,0.0305 -0.009,0.009 -0.0283,0.002 -0.0436,-0.0147 -0.0185,-0.0203 -0.63535,-4.73849 -1.84253,-14.0941 -0.99807,-7.73498 -1.82154,-14.068443 -1.82994,-14.074343 -0.008,-0.006 -1.23379,-3.52202 -2.72308,-7.81358 -1.4893,-4.29157 -2.7133,-7.7964 -2.72,-7.78851 -0.0121,0.0142 -0.29792,11.6366 -0.2958,12.02649 0.001,0.20009 1.2e-4,0.20406 -0.0861,0.34921 -0.14277,0.24024 -0.24603,0.33004 -0.58975,0.51284 -0.16865,0.0897 -0.33531,0.18788 -0.37037,0.21818 -0.0351,0.0303 -0.0861,0.0668 -0.11335,0.0812 -0.0273,0.0143 -0.0683,0.0657 -0.0912,0.11422 -0.0229,0.0485 -0.0635,0.11855 -0.0903,0.15572 -0.043,0.0596 -0.0503,0.10081 -0.0617,0.34921 -0.007,0.1549 -0.18183,7.553203 -0.38821,16.440673 l -0.37524,16.15904 0.52512,4.13765 c 0.28882,2.2757 0.52729,4.14004 0.52995,4.14297 0.003,0.003 0.66922,-0.49042 1.48125,-1.09634 0.81204,-0.60592 1.48697,-1.09816 1.49984,-1.09387 0.0129,0.004 -0.29996,0.24921 -0.69517,0.54426 -0.39521,0.29505 -1.06857,0.79759 -1.49634,1.11676 -0.71251,0.53161 -0.77778,0.58548 -0.77778,0.64203 0,0.034 0.005,0.0617 0.0122,0.0617 0.007,0 0.66862,-0.48572 1.47092,-1.07938 0.80229,-0.59367 1.47035,-1.07939 1.48456,-1.07939 0.0146,0 0.008,0.017 -0.0159,0.0392 -0.0229,0.0216 -0.68459,0.51322 -1.4703,1.09259 -0.78571,0.57938 -1.45343,1.07842 -1.48382,1.10899 -0.0304,0.0306 -0.7534,1.21751 -1.60671,2.63764 -0.8533,1.42013 -1.56535,2.60365 -1.58233,2.63004 -0.0285,0.0443 -0.0279,0.0469 0.009,0.0334 0.038,-0.0139 0.0381,-0.0127 0.003,0.0278 -0.0204,0.0233 -0.0373,0.0654 -0.0377,0.0935 -3.4e-4,0.0282 0.58621,4.67038 1.30344,10.31599 l 1.30407,10.26475 0.071,0.14863 c 0.0618,0.12929 0.0836,0.15477 0.16802,0.19577 0.0534,0.0259 0.13416,0.0471 0.17956,0.0471 0.0454,0 3.63089,-0.91329 7.96778,-2.02954 l 7.88525,-2.02955 0.17819,-0.15568 c 0.098,-0.0856 0.1789,-0.16923 0.17977,-0.18579 8.6e-4,-0.0166 -0.21348,-0.86264 -0.47633,-1.88016 -0.41421,-1.60346 -0.48803,-1.91278 -0.44529,-1.86582 0.004,0.005 0.21919,0.82788 0.47727,1.82896 0.25808,1.00108 0.47431,1.83731 0.48052,1.85829 0.009,0.0305 0.0174,0.0331 0.0416,0.013 0.0287,-0.0238 0.12761,-0.051 0.27525,-0.0758 0.0432,-0.007 0.0957,0.004 0.15282,0.0334 0.0544,0.0278 0.0836,0.0344 0.0779,0.0178 -0.0464,-0.13551 -1.02705,-3.95928 -1.0178,-3.96853 0.007,-0.007 0.0158,-0.008 0.0202,-0.003 0.004,0.005 0.24328,0.9136 0.53091,2.01944 0.44139,1.69694 0.53057,2.01722 0.57162,2.05295 0.0414,0.036 0.10969,0.2876 0.45687,1.68257 0.46563,1.87095 0.49593,1.98225 0.57894,2.12702 0.1391,0.2426 0.22155,0.38696 0.27784,0.48648 0.0328,0.058 0.0992,0.14851 0.14746,0.20106 0.0483,0.0525 0.10133,0.1154 0.11788,0.13966 0.0308,0.0452 16.75672,16.85568 16.77085,16.85568 0.004,0 -0.0497,-0.12619 -0.11997,-0.28042 -1.06762,-2.34299 -2.85307,-6.30934 -2.84415,-6.31826 0.006,-0.006 0.0159,-0.007 0.0211,-0.002 0.005,0.005 0.63229,1.38538 1.39352,3.06707 1.74374,3.85224 1.65809,3.66698 1.7105,3.69971 0.0242,0.0151 0.0471,0.0245 0.0508,0.0208 0.004,-0.004 -0.11149,-0.26161 -0.25603,-0.57309 -0.14454,-0.31148 -0.26279,-0.57101 -0.26279,-0.57672 0,-0.006 0.008,-0.0104 0.0177,-0.0104 0.0238,0 0.55974,1.15839 0.54614,1.1804 -0.009,0.0146 15.064478,8.74004 15.163548,8.77751 0.0192,0.007 0.0391,7.5e-4 0.0452,-0.0147 0.0679,-0.17299 1.86494,-4.5592 1.87055,-4.56568 0.0634,-0.0732 -0.10772,0.36493 -0.87732,2.24617 -0.50137,1.22559 -0.92591,2.26254 -0.9434,2.30433 l -0.0318,0.076 0.068,0.0324 0.068,0.0324 0.94147,-2.26163 c 0.51782,-1.24389 0.94862,-2.26174 0.95735,-2.26188 0.009,-1.4e-4 0.0159,0.007 0.0159,0.0168 0,0.009 -0.42278,1.03082 -0.9395,2.26989 -0.90015,2.1585 -0.9376,2.2536 -0.89418,2.27086 0.084,0.0334 9.86512,3.10047 9.8928,3.10212 0.0194,0.001 0.024,-0.0185 0.0156,-0.0672 z m -7.63025,-8.79006 c 0,-0.0145 0.48824,-1.15868 0.49984,-1.17133 0.004,-0.005 0.014,-0.003 0.0213,0.004 0.0167,0.0167 -0.47983,1.17902 -0.50365,1.17902 -0.01,0 -0.0175,-0.005 -0.0175,-0.0121 z m -0.12698,-0.12584 c 0,-0.014 0.44798,-1.16068 0.45806,-1.17248 0.004,-0.005 0.0136,-0.003 0.0209,0.005 0.0171,0.0171 -0.4375,1.17891 -0.46124,1.17891 -0.01,0 -0.0177,-0.005 -0.0177,-0.011 z m 1.10052,-2.20225 c 0,-0.0145 0.48824,-1.15868 0.49984,-1.17133 0.004,-0.005 0.014,-0.003 0.0213,0.004 0.0167,0.0167 -0.47983,1.17902 -0.50365,1.17902 -0.01,0 -0.0175,-0.005 -0.0175,-0.0121 z m -0.12698,-0.16817 c 0,-0.014 0.44798,-1.16068 0.45806,-1.17247 0.004,-0.005 0.0136,-0.003 0.0209,0.005 0.0171,0.0171 -0.4375,1.17891 -0.46123,1.17891 -0.01,0 -0.0177,-0.005 -0.0177,-0.011 z m -19.943508,-3.5785 c -0.13736,-0.32127 -0.24434,-0.58953 -0.23773,-0.59613 0.007,-0.007 0.0161,-0.008 0.0211,-0.003 0.014,0.014 0.49886,1.14807 0.49886,1.16675 0,0.0709 -0.0656,-0.0611 -0.28221,-0.56769 z m -1.04472,-2.2791 c -0.28015,-0.63246 -0.27019,-0.60774 -0.24493,-0.60774 0.0178,0 0.51385,1.08815 0.51372,1.127 -2.3e-4,0.0667 -0.0628,-0.0542 -0.26879,-0.51926 z m -2.08681,-4.64222 c -0.71936,-1.59018 -1.30269,-2.89648 -1.29629,-2.90288 0.006,-0.006 0.0159,-0.007 0.0212,-0.002 0.0132,0.0132 2.59535,5.71381 2.60882,5.75955 0.0627,0.21263 -0.21538,-0.38249 -1.33369,-2.85456 z m 0.49714,1.31328 c -0.30159,-0.65107 -0.28961,-0.62278 -0.26375,-0.62278 0.0175,0 0.55602,1.13389 0.55602,1.1708 0,0.064 -0.0667,-0.061 -0.29227,-0.54802 z m -1.06284,-2.31734 c -0.2999,-0.62685 -0.2843,-0.5912 -0.25873,-0.5912 0.0173,0 0.55564,1.0934 0.55564,1.12848 0,0.0641 -0.0685,-0.0599 -0.29691,-0.53728 z m -2.10088,-4.64682 c -0.71932,-1.57863 -1.30266,-2.87545 -1.2963,-2.88181 0.006,-0.006 0.0159,-0.007 0.0213,-0.002 0.0134,0.0134 2.59488,5.67112 2.60855,5.71705 0.0633,0.2127 -0.21541,-0.37959 -1.3335,-2.83337 z m 0.54945,1.01642 c -0.13736,-0.32127 -0.24434,-0.58953 -0.23773,-0.59613 0.007,-0.007 0.0161,-0.008 0.0211,-0.003 0.014,0.0139 0.49886,1.14807 0.49886,1.16675 0,0.0709 -0.0656,-0.0611 -0.28221,-0.56769 z m -1.04472,-2.27909 c -0.28015,-0.63247 -0.27019,-0.60775 -0.24493,-0.60775 0.0178,0 0.51385,1.08815 0.51372,1.127 -2.3e-4,0.0667 -0.0628,-0.0542 -0.26879,-0.51925 z m -2.08678,-4.66337 c -0.71932,-1.57863 -1.30266,-2.87545 -1.2963,-2.88181 0.006,-0.006 0.0159,-0.007 0.0213,-0.002 0.0134,0.0134 2.59488,5.67112 2.60855,5.71705 0.0633,0.2127 -0.21541,-0.37959 -1.3335,-2.83337 z m 0.49707,1.33442 c -0.30159,-0.65107 -0.28961,-0.62278 -0.26376,-0.62278 0.0175,0 0.55602,1.13389 0.55602,1.1708 0,0.064 -0.0667,-0.061 -0.29226,-0.54802 z m -1.06285,-2.31733 c -0.2999,-0.62686 -0.2843,-0.59121 -0.25873,-0.59121 0.0173,0 0.55565,1.0934 0.55565,1.12848 0,0.0641 -0.0685,-0.0599 -0.29692,-0.53727 z m -2.10088,-4.64683 c -0.71932,-1.57863 -1.30265,-2.87544 -1.29629,-2.8818 0.006,-0.006 0.0159,-0.007 0.0213,-0.002 0.0134,0.0134 2.59487,5.67112 2.60855,5.71705 0.0633,0.2127 -0.21542,-0.37959 -1.33351,-2.83337 z m 0.56293,1.02309 c -0.28015,-0.63247 -0.27019,-0.60775 -0.24493,-0.60775 0.0178,0 0.51385,1.08815 0.51372,1.127 -2.3e-4,0.0667 -0.0628,-0.0542 -0.26879,-0.51925 z m -8.85954,-1.29798 c -0.14202,-0.51981 -0.17297,-0.66357 -0.1335,-0.6202 0.0112,0.0123 0.33059,1.17405 0.33059,1.20254 0,0.0128 -0.007,0.0231 -0.0159,0.023 -0.009,-1e-4 -0.0903,-0.27253 -0.18122,-0.60538 z m 0.52836,-0.29561 c -0.12433,-0.51858 -0.15061,-0.66452 -0.11178,-0.6209 0.0106,0.0119 0.28845,1.16825 0.28845,1.2004 0,0.014 -0.007,0.0253 -0.0159,0.0251 -0.009,-1.2e-4 -0.0811,-0.27221 -0.1608,-0.60465 z m 7.27299,-0.69217 c -0.28016,-0.63247 -0.27019,-0.60775 -0.24493,-0.60775 0.0178,0 0.51385,1.08816 0.51371,1.12701 -2.2e-4,0.0666 -0.0628,-0.0542 -0.26878,-0.51926 z m -8.43627,-1.4673 c -0.14202,-0.5198 -0.17296,-0.66356 -0.1335,-0.6202 0.0112,0.0123 0.3306,1.17406 0.3306,1.20254 0,0.0128 -0.007,0.0231 -0.0159,0.0231 -0.009,-1.1e-4 -0.0903,-0.27253 -0.18122,-0.60539 z m 0.52837,-0.2956 c -0.12434,-0.51859 -0.15061,-0.66453 -0.11179,-0.6209 0.0106,0.0119 0.28845,1.16825 0.28845,1.2004 0,0.0139 -0.007,0.0253 -0.0159,0.0251 -0.009,-1.3e-4 -0.0811,-0.27222 -0.16079,-0.60465 z m 6.85564,-0.538 c -0.12653,-0.27938 -0.24088,-0.50795 -0.2541,-0.50795 -0.0132,0 -0.1428,-0.24825 -0.28796,-0.55167 -0.2991,-0.6252 -0.28419,-0.59121 -0.25946,-0.59121 0.0102,0 0.0605,0.0855 0.11166,0.18993 0.0512,0.10445 0.096,0.18707 0.0994,0.18358 0.007,-0.007 -0.71014,-1.58431 -0.72802,-1.60105 -0.006,-0.006 -0.005,0.0109 0.003,0.037 0.008,0.0262 0.007,0.0476 -0.003,0.0476 -0.01,-1e-5 -0.13453,-0.2531 -0.27782,-0.56243 -0.30165,-0.6512 -0.28961,-0.62278 -0.26369,-0.62278 0.011,0 0.10388,0.18116 0.20641,0.40257 0.10253,0.22141 0.18956,0.39941 0.19341,0.39557 0.004,-0.004 -0.19517,-0.45066 -0.44224,-0.99291 -0.24708,-0.54225 -0.45586,-0.9753 -0.46396,-0.96233 -0.008,0.013 -0.0188,0.0191 -0.0238,0.0136 -0.012,-0.0132 -2.61756,-5.73265 -2.61756,-5.74586 0,-0.0726 0.22181,0.39942 1.32205,2.81341 0.8053,1.76686 1.29625,2.82011 1.31176,2.81415 0.0155,-0.006 0.51343,1.06237 1.33041,2.85456 0.71808,1.57524 1.3056,2.87083 1.3056,2.87909 0,0.066 -0.064,-0.054 -0.26279,-0.49294 z m -0.51781,-1.1356 c -0.0236,-0.0448 -0.0433,-0.0745 -0.0439,-0.0662 -0.002,0.0243 0.0693,0.16503 0.0785,0.15589 0.005,-0.005 -0.011,-0.0449 -0.0346,-0.0897 z m -0.87832,-1.92589 c -0.0294,-0.0564 -0.0538,-0.0957 -0.0544,-0.0873 -0.002,0.0239 0.0907,0.20697 0.0997,0.19794 0.004,-0.004 -0.016,-0.0542 -0.0453,-0.11065 z m -7.23675,-1.03602 c -0.42862,-1.69467 -0.77386,-3.08668 -0.7672,-3.09334 0.007,-0.007 0.0157,-0.008 0.0201,-0.003 0.0108,0.0119 1.55816,6.12319 1.55816,6.15392 0,0.0134 -0.007,0.0242 -0.0159,0.0241 -0.009,-1.1e-4 -0.36657,-1.38674 -0.79518,-3.08142 z m 0.5286,-0.29593 c -0.41725,-1.69433 -0.75297,-3.08628 -0.74603,-3.09322 0.007,-0.007 0.0162,-0.009 0.0205,-0.004 0.0109,0.0121 1.51588,6.1204 1.51588,6.1525 0,0.0142 -0.007,0.0256 -0.0159,0.0254 -0.009,-1.7e-4 -0.35726,-1.38659 -0.77451,-3.08093 z m 4.96608,-2.57568 c -0.28015,-0.63247 -0.27019,-0.60775 -0.24493,-0.60775 0.0178,0 0.51385,1.08816 0.51371,1.12701 -2.2e-4,0.0667 -0.0628,-0.0542 -0.26878,-0.51926 z m -6.74315,-2.0599 c -0.14202,-0.51981 -0.17297,-0.66357 -0.13351,-0.6202 0.0112,0.0123 0.3306,1.17406 0.3306,1.20254 0,0.0128 -0.007,0.0231 -0.0159,0.023 -0.009,-1e-4 -0.0903,-0.27252 -0.18122,-0.60538 z m 0.52836,-0.29561 c -0.12433,-0.51858 -0.15061,-0.66452 -0.11178,-0.62089 0.0106,0.0119 0.28845,1.16824 0.28845,1.20039 0,0.014 -0.007,0.0253 -0.0159,0.0252 -0.009,-1.3e-4 -0.0811,-0.27222 -0.16079,-0.60466 z m 5.14311,0.0208 c -0.13736,-0.32127 -0.24434,-0.58953 -0.23773,-0.59613 0.007,-0.007 0.0161,-0.008 0.0211,-0.003 0.014,0.0139 0.49885,1.14806 0.49885,1.16675 0,0.0709 -0.0656,-0.0611 -0.28221,-0.56769 z m -6.30639,-2.18022 c -0.14202,-0.51981 -0.17297,-0.66357 -0.1335,-0.6202 0.0112,0.0123 0.33059,1.17405 0.33059,1.20254 0,0.0128 -0.007,0.0231 -0.0159,0.023 -0.009,-1e-4 -0.0903,-0.27253 -0.18122,-0.60538 z m 5.27644,-0.0633 c -0.12878,-0.28942 -0.23612,-0.50356 -0.25527,-0.50928 -0.0184,-0.006 -0.14939,-0.25306 -0.29629,-0.56012 -0.29969,-0.6264 -0.2837,-0.58978 -0.25753,-0.58978 0.0109,0 0.0992,0.16644 0.19629,0.36986 0.0971,0.20342 0.17921,0.3671 0.18257,0.36373 0.003,-0.003 -0.43705,-0.98518 -0.9787,-2.18183 -0.84539,-1.8677 -1.01102,-2.24868 -0.95191,-2.18957 0.0132,0.0132 2.59535,5.71381 2.60883,5.75955 0.006,0.0204 0.003,0.037 -0.007,0.0369 -0.0101,-5e-5 -0.11834,-0.22483 -0.24056,-0.4995 z m -4.74808,-0.23227 c -0.12433,-0.51858 -0.15061,-0.66453 -0.11178,-0.6209 0.0106,0.0119 0.28845,1.16825 0.28845,1.2004 0,0.014 -0.007,0.0253 -0.0159,0.0251 -0.009,-1.2e-4 -0.0811,-0.27222 -0.16079,-0.60465 z m -1.46113,-3.40655 c -0.39724,-1.58965 -0.474,-1.92442 -0.42889,-1.87052 0.01,0.0117 0.92384,3.67446 0.92384,3.70192 0,0.1198 -0.0977,-0.24186 -0.49495,-1.8314 z m 0.48794,-0.44571 c -0.45621,-1.73765 -0.53586,-2.06379 -0.49273,-2.01741 0.0112,0.012 1.05,3.96475 1.05,3.99523 0,0.11851 -0.10098,-0.23988 -0.55727,-1.97782 z m 4.11684,0.72005 c -0.30159,-0.65107 -0.28961,-0.62279 -0.26376,-0.62279 0.0175,0 0.55602,1.13389 0.55602,1.17081 0,0.064 -0.0666,-0.061 -0.29226,-0.54802 z m -10.50059,-1.20204 c 0.10344,-0.0967 0.97972,-0.73416 0.99997,-0.7274 0.0293,0.01 -0.95951,0.75638 -1.00177,0.75638 -0.0239,0 -0.0236,-0.005 0.002,-0.029 z m 0.0423,-0.25397 c 0.10344,-0.0967 0.97972,-0.73416 0.99997,-0.72741 0.0293,0.01 -0.95951,0.75639 -1.00177,0.75639 -0.0239,0 -0.0236,-0.005 0.002,-0.029 z m 8.20038,-3.53573 c -0.80311,-1.77417 -1.46208,-3.22389 -1.46438,-3.22159 -0.002,0.002 0.0869,0.3468 0.19821,0.76556 0.21622,0.81342 0.23364,0.89935 0.20009,0.98712 -0.0193,0.0504 -0.70687,0.55907 -2.94995,2.1823 -0.0786,0.0569 -0.15356,0.0999 -0.16658,0.0955 -0.013,-0.004 0.67238,-0.51227 1.52309,-1.12875 1.39205,-1.00876 1.54809,-1.12763 1.56025,-1.18851 0.007,-0.0372 0.01,-0.0785 0.005,-0.0918 -0.007,-0.0195 -0.87345,0.60928 -2.83727,2.05794 -0.0785,0.0579 -0.15341,0.10162 -0.16658,0.0972 -0.0132,-0.004 0.65339,-0.50638 1.48125,-1.11552 0.82786,-0.60915 1.5052,-1.11198 1.5052,-1.1174 0,-0.0299 -0.47516,-1.82632 -0.5094,-1.92585 -0.0417,-0.12115 -0.055,-0.28145 -0.0233,-0.28145 0.0316,0 0.51983,1.16701 0.4947,1.18255 -0.015,0.009 0.15664,0.4117 0.48681,1.14111 0.28052,0.61971 0.51323,1.12355 0.51715,1.11963 0.004,-0.004 -0.0927,-0.23913 -0.21466,-0.5227 -0.24702,-0.57426 -0.25402,-0.59251 -0.22723,-0.59251 0.0258,0 0.52201,1.16208 0.50391,1.18018 -0.008,0.008 -0.0243,3.8e-4 -0.0364,-0.0167 -0.0192,-0.0272 -0.0207,-0.0271 -0.0114,6.1e-4 0.006,0.0175 0.36957,0.82224 0.80832,1.78839 0.43874,0.96616 0.80265,1.77332 0.80868,1.79369 0.0638,0.2155 -0.23653,-0.42895 -1.48593,-3.18904 z m -1.22511,-2.84095 c -0.0179,-0.033 -0.0329,-0.0534 -0.0334,-0.0452 -10e-4,0.0252 0.0478,0.12342 0.0572,0.11407 0.005,-0.005 -0.006,-0.0358 -0.0238,-0.0689 z m -0.20857,-0.48894 c -0.16321,-0.38124 -0.21635,-0.48642 -0.16198,-0.32061 0.0336,0.10239 0.31984,0.74124 0.32834,0.73273 0.004,-0.004 -0.071,-0.18933 -0.16636,-0.41212 z m -4.77729,5.59575 c 0.10344,-0.0967 0.97972,-0.73415 0.99997,-0.7274 0.0293,0.01 -0.95951,0.75638 -1.00177,0.75638 -0.0239,0 -0.0236,-0.005 0.002,-0.029 z m 0.0423,-0.21164 c 0.10344,-0.0967 0.97972,-0.73416 0.99997,-0.72741 0.0293,0.01 -0.95951,0.75639 -1.00178,0.75639 -0.0239,0 -0.0236,-0.005 0.002,-0.029 z m 6.88392,-0.67547 c -0.28015,-0.63247 -0.27019,-0.60775 -0.24493,-0.60775 0.0178,0 0.51385,1.08816 0.51372,1.12701 -2.3e-4,0.0667 -0.0628,-0.0542 -0.26879,-0.51926 z m 39.202798,-7.7704 c -1.23221,-0.72588 -2.25455,-1.33396 -2.27187,-1.35128 -0.0173,-0.0173 -0.0234,-0.036 -0.0136,-0.0416 0.01,-0.006 1.04094,0.58714 2.29132,1.31708 2.06887,1.20776 2.37975,1.39992 2.25908,1.3963 -0.0135,-4e-4 -1.03275,-0.59464 -2.26495,-1.32053 z m -3.91061,-2.28317 c -0.55167,-0.31929 -0.59561,-0.34783 -0.57843,-0.37563 0.0122,-0.0197 1.05535,0.57394 1.12038,0.63758 0.0961,0.0941 -0.0432,0.0267 -0.54195,-0.26195 z m -2.20105,-1.26987 c -0.55167,-0.31929 -0.59561,-0.34783 -0.57843,-0.37563 0.0122,-0.0197 1.05535,0.57395 1.12038,0.63758 0.0961,0.0941 -0.0432,0.0267 -0.54195,-0.26195 z m -45.245758,-0.83446 c -0.17449,-0.0912 -0.21073,-0.16874 -0.21117,-0.45206 -4.1e-4,-0.26674 0.0356,-0.39147 0.17527,-0.60742 0.11918,-0.18424 0.33029,-0.4103 0.44463,-0.47614 0.19802,-0.11401 0.38754,-0.11556 0.53458,-0.004 0.0543,0.041 0.0713,0.0772 0.10417,0.22105 0.0557,0.24393 0.0301,0.3906 -0.1246,0.71221 -0.099,0.2059 -0.14127,0.26862 -0.25852,0.38358 -0.14256,0.13979 -0.32509,0.24398 -0.47396,0.27056 -0.0578,0.0103 -0.10001,-1.9e-4 -0.1904,-0.0474 z m 0.35431,-0.0511 c 0.11738,-0.0559 0.31347,-0.20907 0.38063,-0.29728 0.0954,-0.12536 0.26104,-0.49563 0.2887,-0.6455 0.0237,-0.12826 0.022,-0.16222 -0.0156,-0.31678 -0.0391,-0.16037 -0.0479,-0.17637 -0.12049,-0.21715 -0.0431,-0.0242 -0.0939,-0.044 -0.11297,-0.044 -0.0319,0 -0.0319,0.004 5.7e-4,0.0537 0.0626,0.0956 0.023,0.32796 -0.12345,0.72513 -0.0676,0.18319 -0.085,0.20935 -0.25095,0.37724 -0.19076,0.19294 -0.28199,0.25259 -0.42011,0.27468 -0.10269,0.0164 -0.0914,0.0436 0.0473,0.11336 0.10113,0.0509 0.18269,0.0451 0.32645,-0.0234 z m -0.17429,-0.21322 c 0.0466,-0.0301 0.1459,-0.11713 0.22076,-0.19346 0.11867,-0.121 0.14544,-0.16397 0.20899,-0.33541 0.15812,-0.42653 0.18784,-0.6269 0.10933,-0.73715 -0.0422,-0.0593 -0.0444,-0.0598 -0.13563,-0.0324 -0.16446,0.0495 -0.27183,0.12504 -0.40816,0.28718 -0.15638,0.186 -0.26023,0.35281 -0.30931,0.49687 -0.0397,0.11656 -0.0495,0.5162 -0.0143,0.58205 0.0191,0.0358 0.0304,0.0369 0.13227,0.013 0.0612,-0.0143 0.14945,-0.0507 0.19602,-0.0807 z m 40.65816,-1.44419 c -1.50034,-0.86606 -2.74173,-1.58849 -2.75863,-1.6054 -0.0169,-0.0169 -0.0227,-0.0353 -0.0128,-0.0408 0.0206,-0.0116 5.40305,3.08887 5.49937,3.16779 0.0399,0.0326 0.0517,0.0522 0.0317,0.0526 -0.0175,3e-4 -1.2593,-0.70806 -2.75965,-1.57413 z m -35.46242,-1.09439 c -0.0895,-0.0252 -0.20075,-0.12688 -0.25582,-0.23373 -0.0845,-0.164 -0.0322,-0.54189 0.1193,-0.86169 0.14182,-0.29934 0.21291,-0.39497 0.40524,-0.54515 0.19435,-0.15177 0.3098,-0.19721 0.50109,-0.19721 0.26409,0 0.4127,0.30237 0.35256,0.7173 -0.0217,0.14992 -0.0469,0.222 -0.1423,0.40692 -0.16075,0.3117 -0.2871,0.46159 -0.48904,0.58014 -0.14745,0.0866 -0.33575,0.16115 -0.39434,0.15621 -0.0124,-0.001 -0.0559,-0.0113 -0.0967,-0.0228 z m 0.21357,-0.0466 c 0.0513,-0.0159 0.16753,-0.0713 0.25824,-0.12301 0.13319,-0.076 0.18627,-0.12245 0.27588,-0.24157 0.27692,-0.36811 0.39211,-0.7241 0.33485,-1.03485 -0.0143,-0.0775 -0.047,-0.17322 -0.0728,-0.21275 -0.0439,-0.0675 -0.17101,-0.15713 -0.19239,-0.13575 -0.005,0.005 0.004,0.062 0.0218,0.12606 0.0695,0.25728 -0.0174,0.60834 -0.23317,0.94179 -0.20921,0.32325 -0.42797,0.514 -0.64764,0.5647 -0.0995,0.023 -0.1043,0.027 -0.073,0.0616 0.0289,0.032 0.13836,0.0736 0.21181,0.0805 0.0127,10e-4 0.0651,-0.0108 0.1164,-0.0267 z m -0.0779,-0.23412 c 0.16488,-0.0927 0.25019,-0.18322 0.42377,-0.44984 0.21955,-0.33722 0.30704,-0.64234 0.25249,-0.88061 -0.0449,-0.19636 -0.0452,-0.19661 -0.19737,-0.16831 -0.11012,0.0205 -0.15624,0.0451 -0.31043,0.16546 -0.22898,0.1788 -0.36438,0.38343 -0.48912,0.73919 -0.0705,0.2012 -0.0901,0.52206 -0.0379,0.62292 0.035,0.0677 0.0397,0.0697 0.13298,0.0569 0.0532,-0.007 0.15471,-0.0459 0.22561,-0.0857 z m 30.93017,-1.16146 c -0.55166,-0.31929 -0.59561,-0.34783 -0.57843,-0.37563 0.0122,-0.0197 1.05535,0.57395 1.12038,0.63758 0.0961,0.0941 -0.0432,0.0267 -0.54195,-0.26195 z m -2.20105,-1.26987 c -0.55166,-0.31929 -0.59561,-0.34782 -0.57843,-0.37562 0.0122,-0.0197 1.05535,0.57394 1.12038,0.63757 0.0961,0.0941 -0.0432,0.0267 -0.54195,-0.26195 z m -4.40982,-2.54422 c -2.49118,-1.43802 -2.80604,-1.62865 -2.71279,-1.64241 0.0254,-0.004 5.38876,3.1157 5.45254,3.17127 0.0367,0.0319 0.0437,0.047 0.0222,0.047 -0.0175,4e-5 -1.26032,-0.70911 -2.7619,-1.57589 z m -4.4021,-2.5397 c -0.47935,-0.27742 -0.54799,-0.32636 -0.52469,-0.37407 0.0129,-0.0264 1.09234,0.60901 1.0978,0.6462 0.003,0.0193 -0.006,0.0349 -0.0194,0.0346 -0.0135,-2.8e-4 -0.26267,-0.13831 -0.55368,-0.30673 z m -2.20105,-1.26986 c -0.47935,-0.27743 -0.54799,-0.32637 -0.52469,-0.37407 0.0129,-0.0264 1.09234,0.609 1.0978,0.64619 0.003,0.0193 -0.006,0.0349 -0.0194,0.0346 -0.0135,-2.9e-4 -0.26267,-0.13832 -0.55368,-0.30673 z m -4.40071,-2.53897 c -1.589,-0.91724 -2.73076,-1.5888 -2.73355,-1.60782 -0.003,-0.018 10e-4,-0.0361 0.009,-0.0403 0.008,-0.004 1.24654,0.7038 2.753,1.5734 2.50409,1.44548 2.84745,1.65348 2.7247,1.65052 -0.0135,-3.3e-4 -1.25252,-0.70942 -2.75334,-1.57576 z m -4.40349,-2.5405 c -0.47935,-0.27742 -0.54799,-0.32636 -0.52469,-0.37407 0.0129,-0.0264 1.09234,0.60901 1.0978,0.6462 0.003,0.0193 -0.006,0.0349 -0.0194,0.0346 -0.0135,-2.9e-4 -0.26268,-0.13832 -0.55369,-0.30674 z m -2.20104,-1.26986 c -0.47935,-0.27743 -0.548,-0.32637 -0.5247,-0.37407 0.0129,-0.0264 1.09235,0.609 1.0978,0.64619 0.003,0.0193 -0.006,0.0349 -0.0194,0.0346 -0.0135,-2.8e-4 -0.26268,-0.13831 -0.55368,-0.30673 z M 67.73752,95.186627 c -1.3037,-0.76199 -2.367978,-1.3903 -2.365068,-1.39625 0.003,-0.006 0.0124,-0.011 0.0212,-0.0113 0.0168,-4.9e-4 4.686038,2.723 4.743888,2.76704 0.0289,0.022 0.0292,0.0258 0.002,0.0259 -0.0175,4e-5 -1.09841,-0.62338 -2.40211,-1.38537 z m -45.484688,0.9125 c -0.16902,-0.0542 -0.21229,-0.10205 -0.25153,-0.27843 -0.0584,-0.26243 0.0132,-0.53916 0.22954,-0.88698 0.11929,-0.19182 0.14643,-0.22114 0.29903,-0.32307 0.2755,-0.18403 0.41925,-0.20489 0.58937,-0.0855 0.0779,0.0547 0.16365,0.22755 0.16255,0.32784 -0.002,0.15202 -0.0966,0.54317 -0.1633,0.67268 -0.0426,0.0828 -0.13032,0.19107 -0.25218,0.3113 -0.25125,0.24789 -0.42557,0.32239 -0.61348,0.26219 z m 0.33143,-0.0813 c 0.1471,-0.0691 0.41472,-0.33986 0.49701,-0.50278 0.0712,-0.14093 0.15907,-0.50472 0.15907,-0.65847 0,-0.11985 -0.0763,-0.26028 -0.1701,-0.31299 -0.11484,-0.0645 -0.12366,-0.058 -0.0899,0.0667 0.0387,0.14318 0.0233,0.32027 -0.0453,0.52055 -0.0973,0.28392 -0.26109,0.50459 -0.52201,0.70321 -0.13372,0.1018 -0.18004,0.12557 -0.24544,0.12595 l -0.0806,4.7e-4 0.0529,0.0409 c 0.11846,0.0915 0.27273,0.0972 0.44444,0.0165 z m -0.18339,-0.2268 c 0.2566,-0.19351 0.41427,-0.41536 0.50901,-0.71623 0.0631,-0.20041 0.0693,-0.33045 0.0231,-0.48598 l -0.0322,-0.10851 -0.0895,0.0269 c -0.095,0.0286 -0.22928,0.10644 -0.35857,0.20779 -0.0436,0.0342 -0.1341,0.15347 -0.20323,0.26791 -0.19674,0.32567 -0.26467,0.58098 -0.21642,0.81337 l 0.0251,0.12085 0.0885,-5.5e-4 c 0.0747,-4.7e-4 0.1142,-0.02 0.25426,-0.1256 z m 41.33171,-2.70242 c -0.29373,-0.16989 -0.52922,-0.31671 -0.52332,-0.32626 0.009,-0.0154 1.04792,0.5676 1.09865,0.61677 0.0736,0.0713 -0.11033,-0.0216 -0.57533,-0.29051 z m -0.0423,-0.25397 c -0.29373,-0.1699 -0.52923,-0.31671 -0.52333,-0.32626 0.009,-0.0154 1.04792,0.5676 1.09865,0.61677 0.0736,0.0713 -0.11033,-0.0215 -0.57532,-0.29051 z m -2.15873,-1.05822 c -0.29373,-0.1699 -0.52922,-0.31672 -0.52332,-0.32626 0.009,-0.0154 1.04792,0.5676 1.09865,0.61677 0.0736,0.0713 -0.11033,-0.0215 -0.57533,-0.29051 z m 0,-0.16932 c -0.29373,-0.16989 -0.52922,-0.31671 -0.52332,-0.32626 0.009,-0.0154 1.04792,0.5676 1.09865,0.61677 0.0736,0.0713 -0.11033,-0.0215 -0.57533,-0.29051 z m -32.15522,-18.57458 c -1.2871,-0.74756 -2.34186,-1.36634 -2.34391,-1.37507 -0.002,-0.009 -4.7e-4,-0.0182 0.004,-0.0212 0.008,-0.006 4.65379,2.68666 4.71018,2.72954 0.0289,0.022 0.0292,0.0258 0.002,0.0258 -0.0175,3e-5 -1.08484,-0.61158 -2.37194,-1.35914 z m -4.03511,-2.12423 c -0.29373,-0.16989 -0.52922,-0.31671 -0.52332,-0.32626 0.009,-0.0154 1.04792,0.5676 1.09864,0.61677 0.0736,0.0713 -0.11032,-0.0216 -0.57532,-0.29051 z m 0,-0.21164 c -0.29373,-0.1699 -0.52922,-0.31672 -0.52332,-0.32626 0.009,-0.0154 1.04792,0.5676 1.09864,0.61677 0.0736,0.0713 -0.11032,-0.0215 -0.57532,-0.29051 z m -2.15872,-1.05822 c -0.29373,-0.1699 -0.52923,-0.31672 -0.52333,-0.32626 0.01,-0.0154 1.04793,0.5676 1.09865,0.61677 0.0736,0.0713 -0.11032,-0.0215 -0.57532,-0.29051 z m -0.0423,-0.21165 c -0.29373,-0.16989 -0.52922,-0.31671 -0.52332,-0.32626 0.009,-0.0154 1.04792,0.5676 1.09864,0.61677 0.0736,0.0713 -0.11032,-0.0215 -0.57532,-0.29051 z M 86.21369,173.49172 c 3.43385,-2.54894 6.29574,-4.67165 6.35976,-4.71714 0.12941,-0.0919 0.14616,-0.11009 0.21394,-0.23167 0.0391,-0.0702 0.0168,-0.0533 -0.13099,0.0987 -0.15235,0.15681 -1.08782,0.85002 -6.45183,4.78105 -3.4505,2.52871 -6.29981,4.61266 -6.33179,4.63102 l -0.0582,0.0334 0.0557,0.0365 c 0.0307,0.0202 0.0656,0.0289 0.0779,0.0195 0.0122,-0.009 2.83166,-2.1025 6.26551,-4.65144 z m -6.79289,3.77623 c -0.21517,-0.42197 -1.39002,-2.72439 -2.61077,-5.1165 l -2.21955,-4.34929 -0.0875,-0.006 -0.0875,-0.006 0.25149,0.49327 c 0.30287,0.59405 4.59354,9.07359 4.793,9.47228 l 0.14029,0.28043 h 0.10588 0.10587 z m 6.8056,-3.91542 c 6.83409,-5.01203 6.536,-4.78529 6.56971,-4.99725 0.008,-0.0481 0.0369,-0.13866 0.0649,-0.20117 0.0625,-0.13926 0.0634,-0.21078 0.006,-0.49186 -0.0396,-0.19528 -0.0558,-0.23528 -0.14491,-0.35745 -0.0552,-0.0757 -1.29889,-1.92808 -2.76383,-4.11649 -1.46494,-2.1884 -2.74566,-4.09942 -2.84605,-4.24671 l -0.18252,-0.26781 -1.15188,0.85713 c -0.63354,0.47142 -1.43992,1.07133 -1.79195,1.33313 -0.35204,0.2618 -0.65072,0.47245 -0.66374,0.46811 -0.013,-0.004 0.78691,-0.61094 1.77763,-1.348 1.54577,-1.15001 1.8013,-1.34758 1.8013,-1.39276 0,-0.0526 -1e-5,-0.0526 -0.11111,0.0271 -0.13337,0.0958 -3.42273,2.50359 -3.4596,2.53243 -0.0142,0.0111 -0.0366,0.0165 -0.0498,0.0121 -0.0132,-0.004 0.77454,-0.59235 1.7506,-1.30654 0.97606,-0.7142 1.79457,-1.31864 1.8189,-1.34322 l 0.0442,-0.0447 -0.42321,-6.06361 -0.42322,-6.06361 0.47977,-21.4819 c 0.26387,-11.81504 0.48549,-21.61046 0.4925,-21.76761 l 0.0127,-0.28572 -0.0917,-0.06 c -0.0707,-0.0462 -0.11125,-0.0583 -0.17702,-0.0529 -0.0658,0.005 -0.64904,0.31641 -2.54384,1.35629 -2.78449,1.52814 -2.57211,1.43071 -2.73457,1.25447 l -0.0874,-0.0948 0.001,-0.30207 c 5.6e-4,-0.16613 0.0845,-3.68688 0.18655,-7.823883 0.19253,-7.80546 0.18985,-7.61789 0.11115,-7.76494 -0.0322,-0.0602 -0.1361,-0.0984 -0.1896,-0.0698 -0.0236,0.0126 -0.0635,0.0229 -0.0888,0.0229 -0.0253,0 -2.4302,1.30148 -5.34432,2.89217 -4.69944,2.56524 -5.29956,2.89839 -5.30886,2.94715 -0.006,0.0302 -0.0168,0.61212 -0.0245,1.29309 l -0.0141,1.23812 2.59841,7.481623 c 1.42913,4.1149 2.60998,7.49592 2.6241,7.51338 0.0202,0.025 -0.005,1.27366 -0.11891,5.85196 -0.0795,3.20112 -0.14514,5.96308 -0.14578,6.13769 l -0.001,0.31746 -0.0938,0.23281 c -0.12166,0.30189 -0.19417,0.36869 -0.68871,0.63444 -0.16878,0.0907 -0.32956,0.18506 -0.3573,0.20969 -0.0898,0.0797 -0.24242,0.33643 -0.25942,0.43632 -0.009,0.0524 -0.0259,0.14286 -0.0377,0.20106 -0.0124,0.0611 -0.17129,6.97988 -0.37568,16.3601 l -0.35416,16.25428 0.51337,4.05299 c 0.28235,2.22915 0.52001,4.08728 0.52813,4.12919 l 0.0147,0.0762 1.77438,-1.32074 c 0.97591,-0.72641 1.78491,-1.31723 1.79779,-1.31294 0.0238,0.008 -0.19369,0.17202 -2.34913,1.77262 -1.15521,0.85785 -1.21086,0.90224 -1.21164,0.96668 -4.5e-4,0.0371 0.008,0.0727 0.0179,0.0791 0.0103,0.006 0.81572,-0.5889 1.78986,-1.32279 0.97415,-0.73388 1.78181,-1.33079 1.79482,-1.32645 0.013,0.004 -0.49958,0.40185 -1.13907,0.88336 -2.18146,1.64257 -2.42332,1.82685 -2.41735,1.84179 0.0347,0.087 5.21583,10.22124 5.22578,10.22161 0.007,2.8e-4 2.87372,-2.09715 6.36957,-4.66096 z m -7.00664,-9.03973 c 0.10344,-0.0967 0.97972,-0.73416 0.99997,-0.72741 0.0293,0.01 -0.95951,0.75639 -1.00177,0.75639 -0.0239,0 -0.0236,-0.005 0.002,-0.029 z m -0.0423,-0.16932 c 0.10345,-0.0967 0.97973,-0.73416 0.99998,-0.7274 0.0293,0.01 -0.95951,0.75638 -1.00178,0.75638 -0.0239,0 -0.0236,-0.005 0.002,-0.029 z m 2.1164,-1.35452 c 0.10344,-0.0967 0.97972,-0.73416 0.99997,-0.72741 0.0293,0.01 -0.95951,0.75639 -1.00178,0.75639 -0.0239,0 -0.0236,-0.005 0.002,-0.029 z m -0.0423,-0.16932 c 0.10344,-0.0967 0.97972,-0.73415 0.99997,-0.7274 0.0293,0.01 -0.95951,0.75638 -1.00177,0.75638 -0.0239,0 -0.0236,-0.005 0.002,-0.029 z m -5.95203,-12.41041 c -0.10481,-0.11203 -0.12278,-0.17564 -0.12278,-0.4348 0,-0.26414 0.0321,-0.39642 0.13769,-0.56747 0.0726,-0.11756 0.35427,-0.40797 0.46469,-0.47907 0.0994,-0.064 0.26206,-0.11068 0.38687,-0.11103 0.0879,-2.5e-4 0.0919,0.003 0.19048,0.15118 l 0.10069,0.15144 -0.002,0.1819 c -0.004,0.38621 -0.21366,0.76026 -0.58188,1.04058 l -0.16483,0.12547 h -0.17718 c -0.16598,0 -0.18063,-0.004 -0.23164,-0.0582 z m 0.56011,-0.1092 c 0.30076,-0.22682 0.46081,-0.47912 0.55406,-0.87341 0.0378,-0.15971 0.01,-0.28775 -0.0977,-0.44599 -0.0697,-0.10272 -0.0925,-0.1217 -0.14606,-0.1217 -0.0595,0 -0.0618,0.003 -0.0371,0.0476 0.0457,0.0828 0.034,0.36761 -0.022,0.53441 -0.0707,0.21065 -0.28514,0.56813 -0.39184,0.65337 -0.12099,0.0966 -0.2946,0.19874 -0.37209,0.21882 -0.0625,0.0162 -0.0637,0.0187 -0.0317,0.0644 0.03,0.0428 0.0506,0.0475 0.20671,0.047 l 0.1734,-5.5e-4 z m -0.36893,-0.0999 c 0.2092,-0.12194 0.27204,-0.18454 0.40095,-0.39941 0.20297,-0.33832 0.27989,-0.65289 0.20959,-0.85716 -0.0303,-0.088 -0.0654,-0.089 -0.24907,-0.007 -0.13687,0.0608 -0.39812,0.31387 -0.49929,0.4837 -0.10747,0.18041 -0.13381,0.28975 -0.13381,0.55544 0,0.13255 0.01,0.25877 0.0211,0.28048 0.0259,0.0484 0.10056,0.0318 0.2505,-0.0556 z m 5.18587,-2.62803 c -0.17807,-0.093 -0.20806,-0.16394 -0.20849,-0.49299 -4.1e-4,-0.3135 0.0297,-0.42465 0.1761,-0.65103 0.15368,-0.23757 0.35277,-0.43231 0.56772,-0.55532 0.18782,-0.10749 0.19005,-0.10813 0.28869,-0.0838 0.26337,0.065 0.25547,0.0607 0.30858,0.16596 0.0872,0.17285 0.10836,0.31661 0.0777,0.52838 -0.0587,0.40447 -0.42026,0.93131 -0.75687,1.1027 -0.13263,0.0675 -0.30779,0.0622 -0.45338,-0.0139 z m 0.43221,-0.0282 c 0.23344,-0.11828 0.43647,-0.34581 0.61184,-0.68568 0.16322,-0.31633 0.18405,-0.63308 0.0579,-0.88038 -0.0477,-0.0934 -0.0496,-0.0949 -0.15417,-0.11449 l -0.0811,-0.0152 0.0337,0.0652 c 0.0539,0.10419 0.0455,0.40601 -0.0162,0.58737 -0.0873,0.2564 -0.19173,0.43596 -0.35573,0.61171 -0.18479,0.19804 -0.3334,0.29834 -0.4971,0.33552 l -0.12045,0.0274 0.0725,0.0437 c 0.10122,0.061 0.12128,0.0666 0.24788,0.0685 0.075,0.001 0.14134,-0.0132 0.20106,-0.0435 z m -0.21061,-0.21711 c 0.26542,-0.14925 0.49315,-0.45258 0.62022,-0.82613 0.091,-0.26736 0.0577,-0.64277 -0.0602,-0.68021 -0.0406,-0.0129 -0.3084,0.11987 -0.43358,0.21489 -0.0821,0.0623 -0.29222,0.31892 -0.37976,0.46374 -0.11028,0.18243 -0.13474,0.2871 -0.13474,0.5766 0,0.33035 0.0106,0.35371 0.1522,0.33694 0.0622,-0.007 0.15897,-0.0426 0.23591,-0.0858 z m -5.00197,-20.02881 c -0.17567,-0.0918 -0.21615,-0.17474 -0.20518,-0.4205 0.007,-0.15814 0.0249,-0.23968 0.0996,-0.45504 0.0902,-0.2602 0.0924,-0.26384 0.26237,-0.43856 0.14411,-0.14812 0.26066,-0.23762 0.33496,-0.25721 0.008,-0.002 0.0656,-0.0174 0.12698,-0.0337 0.16957,-0.045 0.30698,0.01 0.42157,0.16785 0.0915,0.12626 0.073,0.32395 -0.0676,0.72253 -0.092,0.26096 -0.1026,0.27851 -0.28403,0.47139 -0.13049,0.13871 -0.18405,0.17949 -0.29302,0.22311 -0.21758,0.0871 -0.26299,0.0894 -0.39561,0.0201 z m 0.39037,-0.0607 c 0.14731,-0.0599 0.18813,-0.0944 0.34998,-0.29646 0.10427,-0.13016 0.13259,-0.18674 0.21003,-0.41962 0.0515,-0.15475 0.0946,-0.3298 0.10146,-0.41181 0.0106,-0.12612 0.006,-0.15157 -0.0384,-0.21963 -0.0277,-0.0423 -0.085,-0.0965 -0.12732,-0.12029 -0.10482,-0.059 -0.12807,-0.0565 -0.10241,0.011 0.0114,0.0299 0.0204,0.14177 0.0201,0.24868 -4.9e-4,0.16463 -0.01,0.21547 -0.0594,0.33197 -0.0848,0.19844 -0.19204,0.35646 -0.36668,0.54031 -0.1572,0.16549 -0.22225,0.21079 -0.36297,0.25275 -0.0443,0.0132 -0.0812,0.0329 -0.082,0.0438 -7.7e-4,0.0109 0.0402,0.0418 0.0912,0.0689 0.10656,0.0566 0.16653,0.0517 0.36643,-0.0295 z m -0.26606,-0.17353 c 0.18895,-0.0932 0.47254,-0.44348 0.58695,-0.72505 0.0423,-0.10411 0.0513,-0.15868 0.0464,-0.28002 l -0.006,-0.15071 -0.12036,-0.0713 -0.12035,-0.0713 -0.0913,0.0415 c -0.0502,0.0228 -0.1561,0.10764 -0.23532,0.18849 -0.13235,0.13508 -0.15098,0.16575 -0.22969,0.3781 -0.0471,0.1271 -0.0938,0.26918 -0.10372,0.31575 -0.0256,0.12023 -0.024,0.36544 0.003,0.41545 0.0281,0.0525 0.10494,0.041 0.27087,-0.0408 z m 0.60716,-1.31266 c -0.009,-0.0299 -0.0259,-0.0385 -0.0575,-0.0302 -0.0438,0.0114 -0.0437,0.012 0.006,0.0493 0.0579,0.0437 0.0703,0.0391 0.0518,-0.0191 z m 4.62693,-1.28333 c -0.20747,-0.12034 -0.20758,-0.12048 -0.24861,-0.33833 -0.0373,-0.19795 -0.0372,-0.20235 0.008,-0.38643 0.0706,-0.28874 0.20338,-0.53559 0.40275,-0.74869 0.22053,-0.23571 0.29997,-0.28875 0.48546,-0.32409 0.19574,-0.0373 0.24773,-0.0251 0.35622,0.0834 0.18019,0.18019 0.20054,0.48717 0.0598,0.90235 -0.0627,0.18508 -0.1768,0.34791 -0.3935,0.56166 -0.13409,0.13227 -0.20692,0.1864 -0.30353,0.22559 -0.20189,0.0819 -0.26078,0.0858 -0.36644,0.0246 z m 0.36656,-0.0674 c 0.1527,-0.0614 0.36524,-0.26024 0.51816,-0.48466 0.23369,-0.34295 0.29819,-0.84078 0.14021,-1.08212 -0.0418,-0.0638 -0.13422,-0.13391 -0.17661,-0.13391 -0.0109,0 -0.005,0.0666 0.0125,0.14986 0.049,0.22804 0.0174,0.39797 -0.13148,0.70755 -0.11194,0.2328 -0.13237,0.26069 -0.34669,0.47312 -0.18434,0.18271 -0.24894,0.23315 -0.33894,0.26459 -0.0612,0.0214 -0.11626,0.047 -0.12245,0.0571 -0.006,0.01 0.0343,0.0421 0.09,0.0712 0.11467,0.06 0.15642,0.0573 0.35525,-0.0227 z m -0.34451,-0.14195 c 0.25808,-0.11495 0.51272,-0.38849 0.67585,-0.72604 0.13807,-0.28569 0.17322,-0.46425 0.12969,-0.65896 -0.0175,-0.0781 -0.0401,-0.15085 -0.0502,-0.16168 -0.0114,-0.0121 -0.0674,-0.0106 -0.14578,0.004 -0.35842,0.0667 -0.80243,0.66567 -0.86066,1.16109 -0.008,0.0701 0,0.16697 0.023,0.2703 0.0413,0.18584 0.0506,0.19036 0.22811,0.1113 z m -6.71677,43.64319 c -0.0136,-0.0262 -0.0303,-0.0601 -0.0372,-0.0753 -0.007,-0.0152 -0.0626,-0.0565 -0.12369,-0.0917 -0.0856,-0.0493 -0.11111,-0.0566 -0.11111,-0.0318 0,0.0177 0.01,0.0381 0.0212,0.0453 0.0116,0.007 0.0212,0.0297 0.0212,0.0499 0,0.0203 0.0119,0.0625 0.0265,0.0938 0.0233,0.0501 0.0386,0.057 0.12717,0.0571 0.0976,1.6e-4 0.0999,-0.001 0.0761,-0.0474 z m -0.5566,-4.29186 c -0.28531,-2.252 -0.52609,-4.10701 -0.53507,-4.12224 -0.009,-0.0152 -0.0663,-0.0565 -0.12744,-0.0917 -0.098,-0.0565 -0.11094,-0.0594 -0.10971,-0.0252 7.7e-4,0.0213 0.23648,1.88578 0.52381,4.14323 l 0.52241,4.10445 0.1164,0.0686 c 0.075,0.0442 0.11853,0.0595 0.12237,0.043 0.003,-0.0141 -0.22746,-1.8681 -0.51277,-4.1201 z m -53.717338,-0.47032 c -0.0394,-0.0803 -0.0835,-0.13042 -0.1585,-0.18006 -0.12236,-0.081 -0.13691,-0.0544 -0.0507,0.0927 0.0454,0.0775 0.19581,0.19778 0.24815,0.19845 0.009,1.2e-4 -0.009,-0.0499 -0.0389,-0.11109 z m -0.0719,-0.20647 c 0,-0.0118 -0.58571,-4.62213 -1.30158,-10.24518 -0.71587,-5.62304 -1.30158,-10.23368 -1.30158,-10.24587 0,-0.0134 -0.0127,-0.0117 -0.0322,0.005 -0.0271,0.0225 -0.0458,0.0124 -0.11769,-0.0632 -0.047,-0.0494 -0.0906,-0.0847 -0.0969,-0.0784 -0.006,0.006 0.58692,4.62739 1.31821,10.26913 l 1.32964,10.25771 0.0852,0.0604 c 0.0923,0.0654 0.11693,0.074 0.11693,0.0408 z M 73.4837,159.06651 c 2e-5,-0.0844 0.15664,-7.27739 0.34805,-15.98443 0.19141,-8.70705 0.35092,-15.96841 0.35447,-16.13636 l 0.006,-0.30537 -0.10143,-0.0729 c -0.0558,-0.0401 -0.10397,-0.0694 -0.10709,-0.065 -0.006,0.008 -0.7576,32.32183 -0.75561,32.48798 0.001,0.0961 0.004,0.10003 0.11228,0.16284 0.0611,0.0354 0.11826,0.0649 0.12699,0.0655 0.009,6.6e-4 0.0159,-0.0679 0.0159,-0.15225 z m -54.319618,-19.55888 1.6019,-2.66438 -0.0541,-0.0781 c -0.0298,-0.043 -0.0803,-0.10324 -0.11239,-0.13393 l -0.0582,-0.0558 -0.46697,0.7771 c -0.25683,0.4274 -0.98399,1.63639 -1.61589,2.68663 l -1.14893,1.90953 0.11149,0.12869 c 0.0613,0.0708 0.11818,0.12104 0.12637,0.11168 0.008,-0.009 0.73575,-1.21599 1.61679,-2.6814 z m 1.65314,-2.83882 c 0,-0.0763 -0.008,-0.0861 -0.1164,-0.15168 -0.10953,-0.066 -0.1168,-0.0676 -0.12319,-0.0276 -0.008,0.0488 0.1792,0.281 0.21631,0.26863 0.0128,-0.004 0.0233,-0.0445 0.0233,-0.0893 z m -0.52796,-4.28613 c -0.28531,-2.25199 -0.5261,-4.107 -0.53507,-4.12223 -0.009,-0.0152 -0.0663,-0.0565 -0.12744,-0.0917 -0.098,-0.0565 -0.11095,-0.0594 -0.10971,-0.0252 7.7e-4,0.0213 0.23648,1.88579 0.5238,4.14324 l 0.52242,4.10445 0.1164,0.0686 c 0.075,0.0442 0.11853,0.0595 0.12237,0.043 0.003,-0.0141 -0.22746,-1.86811 -0.51277,-4.12011 z m -0.51965,-4.3306 c 0,-0.0775 0.16619,-7.27045 0.36932,-15.98444 0.20312,-8.71398 0.37217,-15.971693 0.37566,-16.128243 l 0.006,-0.28464 -0.12242,-0.0727 c -0.0673,-0.04 -0.12504,-0.069 -0.12826,-0.0646 -0.006,0.009 -0.75782,32.276713 -0.75579,32.445833 0.001,0.0961 0.004,0.10003 0.11229,0.16283 0.0611,0.0354 0.11825,0.0649 0.12698,0.0655 0.009,6.6e-4 0.0159,-0.0622 0.0159,-0.13963 z m 54.463128,-1.50115 c 0.007,-0.0184 0.0128,-0.0631 0.0128,-0.0993 0,-0.0876 0.13965,-0.31584 0.27442,-0.44858 l 0.10652,-0.10493 -0.12023,-0.0681 c -0.1114,-0.0631 -0.12446,-0.066 -0.17776,-0.0384 -0.0978,0.0506 -0.19822,0.18985 -0.26934,0.37352 -0.0935,0.24145 -0.0906,0.27219 0.033,0.35302 0.11621,0.076 0.12336,0.0777 0.1406,0.0328 z m 0.94388,-0.94032 c 1e-4,-0.006 -0.0544,-0.041 -0.12102,-0.0779 l -0.12119,-0.0671 -0.22272,0.11831 c -0.1225,0.0651 -0.23496,0.12777 -0.24991,0.13934 -0.0203,0.0157 0.004,0.0387 0.0952,0.0905 l 0.12242,0.0695 0.24851,-0.13085 c 0.13667,-0.072 0.24858,-0.13571 0.24867,-0.14166 z m 0.20839,-0.15183 c 0.0568,-0.0394 0.0888,-0.0945 0.16374,-0.28181 0.0512,-0.12804 0.0932,-0.24907 0.0934,-0.26895 2.9e-4,-0.0387 -0.15937,-0.14376 -0.21852,-0.14376 -0.0253,0 -0.0352,0.0186 -0.0352,0.0664 0,0.14179 -0.0876,0.30665 -0.24794,0.46661 l -0.1527,0.15235 0.12096,0.0686 c 0.11857,0.0673 0.12179,0.0679 0.16328,0.0291 0.0233,-0.0217 0.0741,-0.0616 0.11298,-0.0885 z m 0.25739,-0.79103 c 0,-0.0764 0.0614,-2.65498 0.13653,-5.73027 0.0751,-3.07528 0.13937,-5.71475 0.14285,-5.86547 l 0.006,-0.27405 -0.12241,-0.0727 c -0.0673,-0.04 -0.12509,-0.069 -0.12836,-0.0646 -0.006,0.008 -0.24947,11.7315 -0.24763,11.93537 0.001,0.11672 0.002,0.11784 0.091,0.16271 0.0495,0.0249 0.0971,0.0458 0.10582,0.0465 0.009,7.2e-4 0.0159,-0.0612 0.0159,-0.13753 z m 0.2963,-11.94693 c 0,-0.0319 -0.0629,-0.0933 -0.14815,-0.14475 -0.0913,-0.055 -0.10582,-0.0557 -0.10582,-0.005 0,0.0263 0.0385,0.0626 0.11111,0.10463 0.12249,0.0709 0.14286,0.0773 0.14286,0.0447 z m -0.21063,-0.56526 c -1.7297,-4.98578 -5.02516,-14.457723 -5.03928,-14.484113 -0.0206,-0.0386 -0.20766,-0.15559 -0.22343,-0.13982 -0.005,0.005 1.13458,3.284823 2.53318,7.287723 1.39859,4.0029 2.57133,7.36164 2.60608,7.46386 0.0606,0.17835 0.0672,0.18793 0.16159,0.23712 0.0541,0.0282 0.10032,0.0517 0.10264,0.0522 0.002,5.4e-4 -0.061,-0.18712 -0.14078,-0.41701 z m 6.03838,-6.8138 c 0.0209,-0.0209 -0.2195,-0.15319 -0.25416,-0.13989 -0.041,0.0157 -0.0355,0.0494 0.0174,0.10563 0.0338,0.036 0.0694,0.049 0.13403,0.049 0.0484,0 0.0947,-0.007 0.10275,-0.0147 z m 2.48967,-1.35643 c 1.26296,-0.69255 2.30091,-1.26326 2.30656,-1.26824 0.0112,-0.01 -0.0599,-0.0672 -0.14665,-0.1185 -0.0534,-0.0315 -0.10389,-0.005 -2.41409,1.25173 -1.29776,0.70616 -2.37236,1.2922 -2.38801,1.30229 -0.0206,0.0133 0.005,0.0375 0.0946,0.0881 0.11848,0.0671 0.12542,0.0685 0.18718,0.0368 0.0353,-0.0181 1.09748,-0.5996 2.36043,-1.29214 z m 2.50125,-1.33971 c 0.0672,-0.002 0.0649,-0.004 -0.0568,-0.0624 -0.12061,-0.0576 -0.24101,-0.0792 -0.27147,-0.0487 -0.008,0.008 0.0312,0.0447 0.0864,0.0822 0.0729,0.0495 0.11017,0.0631 0.13605,0.0495 0.0196,-0.0103 0.0672,-0.0195 0.10582,-0.0205 z M 70.69831,96.515037 c 0.007,-0.59075 0.0186,-1.15685 0.0252,-1.25799 l 0.0119,-0.18391 -0.10201,-0.0748 c -0.0561,-0.0412 -0.10721,-0.0751 -0.11356,-0.0754 -0.0102,-4.6e-4 -0.0859,2.18607 -0.0843,2.43664 6e-4,0.0963 0.003,0.0999 0.11172,0.16283 0.0611,0.0354 0.11713,0.0649 0.12447,0.0655 0.007,6.5e-4 0.0193,-0.48215 0.0267,-1.07291 z m -0.25171,-0.92699 c 0.0807,-2.48586 0.10944,-3.44786 0.1031,-3.45651 -0.003,-0.004 -0.0584,0.0141 -0.1229,0.0408 -0.1008,0.0418 -0.11854,0.0577 -0.12664,0.11358 -0.0107,0.0739 -0.0772,3.75519 -0.0763,4.22376 5.8e-4,0.29513 0.004,0.31559 0.0769,0.53574 0.042,0.12589 0.0797,0.22543 0.084,0.22121 0.004,-0.004 0.0321,-0.7596 0.062,-1.67861 z m -49.911288,-0.12557 c 0.007,-0.11135 0.0191,-0.14824 0.0636,-0.19577 0.0302,-0.0322 0.0618,-0.0824 0.0702,-0.11148 0.0201,-0.0691 0.0855,-0.14031 0.19027,-0.20711 l 0.0845,-0.0539 -0.13271,-0.0593 c -0.16716,-0.0746 -0.19855,-0.0628 -0.34129,0.12921 -0.11386,0.15311 -0.19235,0.33171 -0.19237,0.43769 -1e-5,0.0582 0.0142,0.0749 0.1111,0.13109 0.0611,0.0354 0.11715,0.0649 0.12452,0.0655 0.007,6.6e-4 0.0173,-0.0605 0.0221,-0.13601 z m 55.530368,-3.33917 c 2.85766,-1.55951 5.20977,-2.84309 5.22691,-2.8524 0.0226,-0.0122 -0.003,-0.032 -0.0922,-0.0715 l -0.12338,-0.0546 -5.21993,2.83835 c -2.87095,1.5611 -5.2423,2.85237 -5.26966,2.8695 l -0.0497,0.0312 0.10265,0.0697 c 0.0987,0.067 0.10508,0.0685 0.16614,0.0375 0.0349,-0.0177 2.40158,-1.30818 5.25924,-2.8677 z m -54.603268,2.46669 c 0.0112,-0.01 -0.0598,-0.0673 -0.14682,-0.11865 -0.0529,-0.0312 -0.0639,-0.027 -0.32816,0.12372 -0.25167,0.14361 -0.26934,0.15765 -0.22183,0.17632 0.0284,0.0112 0.085,0.0348 0.1257,0.0525 0.0738,0.0321 0.0748,0.0318 0.31746,-0.0963 0.13386,-0.0707 0.248,-0.13256 0.25365,-0.13756 z m 0.22412,-0.15785 c 0.12031,-0.1305 0.2418,-0.36057 0.2418,-0.4579 0,-0.0812 -0.008,-0.0945 -0.10053,-0.16152 -0.0988,-0.0718 -0.10077,-0.0722 -0.11448,-0.0267 -0.0633,0.21056 -0.13199,0.32895 -0.27332,0.47124 l -0.14871,0.14971 0.11217,0.0751 c 0.10163,0.068 0.11714,0.0726 0.16508,0.0479 0.0291,-0.015 0.0822,-0.059 0.11799,-0.0978 z m 0.37856,-6.46224 c 0.0751,-3.09636 0.13933,-5.7483 0.14274,-5.8932 l 0.006,-0.26345 -0.12241,-0.0727 c -0.0673,-0.04 -0.1251,-0.0691 -0.12837,-0.0646 -0.006,0.009 -0.24947,11.68967 -0.24763,11.8947 0.001,0.11851 0.002,0.11957 0.10159,0.18471 l 0.10053,0.0655 0.005,-0.11063 c 0.003,-0.0608 0.0668,-2.64402 0.14194,-5.74037 z m 48.380958,4.14939 c 0.13783,-0.061 0.13998,-0.0715 0.0564,-0.2763 -0.0788,-0.19307 -0.17127,-0.33682 -0.2725,-0.42346 l -0.0816,-0.0698 -0.1201,0.0681 -0.1201,0.0681 0.11548,0.11405 c 0.0992,0.0979 0.12802,0.14631 0.20431,0.34259 0.0489,0.1257 0.0916,0.22854 0.0949,0.22854 0.003,0 0.0588,-0.0233 0.12312,-0.0517 z m -0.34887,-0.79443 c -1.5e-4,-0.006 -2.54902,-1.4793 -5.664138,-3.27392 l -5.66387,-3.26293 -0.10265,0.0671 c -0.0565,0.0369 -0.1024,0.0719 -0.10209,0.0777 3.1e-4,0.006 2.5406,1.47883 5.6451,3.27335 l 5.644528,3.26277 0.1217,-0.0665 c 0.0669,-0.0366 0.12157,-0.0715 0.12142,-0.0775 z m -14.606488,-2.12469 c 0.008,-0.0702 -0.0112,-0.16176 -0.0338,-0.16084 -0.009,3.5e-4 -0.0578,0.0372 -0.10945,0.0819 l -0.094,0.0812 0.0622,0.0342 c 0.0953,0.0523 0.16656,0.0375 0.175,-0.0365 z m 25.992958,0.006 c 0.0232,-0.0164 0.0248,-0.0253 0.006,-0.0329 -0.0142,-0.006 -0.0598,-0.0336 -0.10147,-0.0619 -0.0416,-0.0283 -0.0891,-0.0514 -0.10552,-0.0514 -0.0374,0 -0.13763,0.0449 -0.1376,0.0616 3e-5,0.0187 0.21579,0.10537 0.26452,0.10628 0.0233,4.3e-4 0.0566,-0.009 0.0741,-0.0217 z m -26.121868,-0.15211 0.0897,-0.0782 -0.0473,-0.0308 c -0.026,-0.017 -5.07021,-2.93082 -11.20927,-6.47526 l -11.16193,-6.44443 -0.12374,0.10763 c -0.0681,0.0592 -0.12331,0.11334 -0.12279,0.12033 5.3e-4,0.007 5.04574,2.91904 11.2116,6.47125 9.24936,5.32864 11.21619,6.45409 11.24239,6.43307 0.0175,-0.014 0.0721,-0.0606 0.12141,-0.10362 z m 2.50146,-0.51668 0.087,-0.057 -0.0587,-0.0247 c -0.0515,-0.0217 -0.0732,-0.0168 -0.17849,0.0408 -0.0659,0.036 -0.11536,0.0728 -0.10986,0.0817 0.0236,0.0382 0.17589,0.0143 0.26,-0.0408 z m -0.0835,-0.13312 c -1.9e-4,-0.006 -0.43476,-0.26024 -0.96571,-0.56489 l -0.96538,-0.55391 -0.10269,0.0671 c -0.0565,0.0369 -0.10247,0.0719 -0.10219,0.0777 2.7e-4,0.006 0.42629,0.25979 0.9467,0.56437 l 0.94621,0.55379 0.1217,-0.0666 c 0.0669,-0.0366 0.12154,-0.0715 0.12136,-0.0776 z m -2.04217,-1.09269 c 0.0735,-0.0475 0.0477,-0.0718 -0.0762,-0.0718 -0.091,0 -0.2305,0.0449 -0.2305,0.0741 0,0.005 0.0357,0.0281 0.0794,0.0508 0.0854,0.0444 0.0713,0.0477 0.22733,-0.0531 z m 2.92062,-2.4974 c 0.0735,-0.0475 0.0477,-0.0718 -0.0762,-0.0718 -0.091,0 -0.23051,0.0449 -0.23051,0.0741 0,0.005 0.0357,0.0281 0.0794,0.0508 0.0854,0.0444 0.0713,0.0476 0.22733,-0.0531 z m -36.43354,-3.09748 c 0,-0.0271 -0.0442,-0.0716 -0.12698,-0.12778 l -0.12698,-0.0862 v 0.0622 c 0,0.0528 0.0168,0.072 0.11111,0.12659 0.13297,0.077 0.14285,0.0787 0.14285,0.0252 z m -0.75081,-2.10535 c -0.36665,-1.05776 -0.66951,-1.92608 -0.67302,-1.92959 -0.004,-0.004 -0.0319,0.0146 -0.063,0.0403 l -0.0566,0.0467 0.33816,0.97356 c 0.18599,0.53546 0.47293,1.36223 0.63764,1.83726 l 0.29947,0.86369 0.0865,0.0602 c 0.0476,0.0331 0.089,0.0537 0.092,0.0456 0.003,-0.008 -0.29445,-0.88001 -0.66111,-1.93777 z m -0.7352,-1.9436 0.0452,-0.0481 -1.85076,-5.34356 c -1.01792,-2.93896 -1.87596,-5.41349 -1.90675,-5.49894 -0.0457,-0.12686 -0.0716,-0.1667 -0.14118,-0.21709 -0.0469,-0.0339 -0.0888,-0.0581 -0.0933,-0.0536 -0.004,0.004 0.83157,2.43074 1.85782,5.39178 1.02624,2.96104 1.8989,5.48133 1.93925,5.60064 0.0403,0.11932 0.0804,0.21694 0.0889,0.21694 0.009,0 0.0359,-0.0216 0.0608,-0.0481 z m 12.16921,-1.58843 0.0907,-0.079 -0.0695,-0.0365 c -0.11591,-0.0608 -0.40602,-0.37289 -0.46309,-0.49817 -0.0142,-0.0312 -0.0319,-0.0568 -0.0392,-0.0568 -0.007,0 -0.0599,0.0473 -0.11691,0.10522 l -0.10363,0.10521 0.0515,0.1114 c 0.0539,0.11661 0.3028,0.39776 0.4106,0.46385 0.0601,0.0368 0.0647,0.0369 0.10582,0.001 0.0237,-0.0206 0.0838,-0.0729 0.13368,-0.11637 z m -0.65053,-1.16288 c -0.14114,-0.402 -0.15858,-0.46886 -0.16552,-0.63454 -0.004,-0.10185 -0.012,-0.18519 -0.0172,-0.18519 -0.005,0 -0.0616,0.0295 -0.12548,0.0655 l -0.11608,0.0655 v 0.15546 c 0,0.0855 0.01,0.16135 0.0212,0.16855 0.0116,0.007 0.0212,0.037 0.0212,0.0662 0,0.0403 0.18138,0.5925 0.30808,0.93795 0.008,0.0219 0.0424,-6.3e-4 0.12141,-0.0798 l 0.11019,-0.11034 z m -0.18389,-0.88793 c 0.0255,-0.0399 -0.14101,-0.45352 -0.21394,-0.53126 -0.032,-0.0341 -0.0859,-0.0792 -0.11973,-0.10029 -0.0605,-0.0376 -0.0634,-0.0374 -0.16931,0.0158 -0.0593,0.0298 -0.11185,0.0579 -0.11688,0.0625 -0.005,0.005 0.0446,0.0562 0.11023,0.11477 0.13991,0.1247 0.24911,0.3254 0.26457,0.48623 l 0.0101,0.10549 0.1084,-0.0624 c 0.0596,-0.0343 0.11656,-0.0752 0.12653,-0.0908 z m -0.5584,-0.62992 c 0.0453,-0.0231 0.0869,-0.0494 0.0925,-0.0583 0.006,-0.009 -0.42387,-0.26567 -0.95427,-0.57042 l -0.96436,-0.55408 -0.10465,0.053 -0.10465,0.053 0.97041,0.55852 c 0.53372,0.30719 0.97317,0.55892 0.97654,0.55941 0.003,4.9e-4 0.0432,-0.018 0.0885,-0.0411 z m -1.96523,-1.15713 c 0.0569,-0.031 0.1034,-0.0653 0.1034,-0.0763 0,-0.011 -0.0663,-0.0884 -0.14734,-0.17201 -0.16669,-0.17191 -0.21245,-0.26114 -0.21245,-0.41429 0,-0.0586 -0.005,-0.10651 -0.0109,-0.10651 -0.006,0 -0.0631,0.0295 -0.12699,0.0655 -0.0948,0.0535 -0.11613,0.0758 -0.11634,0.12169 -4.1e-4,0.0858 0.12684,0.39526 0.19809,0.4817 0.0525,0.0637 0.17153,0.15612 0.20142,0.15643 0.004,4e-5 0.0542,-0.0252 0.11111,-0.0562 z m 3.51079,-0.61697 c 0,-0.0254 -0.11849,-0.0887 -0.16604,-0.0887 -0.0237,0 -0.049,-0.009 -0.0561,-0.0211 -0.008,-0.0132 -0.0373,-0.009 -0.0782,0.0126 l -0.0651,0.0337 0.12387,0.0702 c 0.11595,0.0657 0.12764,0.0683 0.18273,0.0398 0.0324,-0.0167 0.0589,-0.0377 0.0589,-0.0465 z m -3.79579,-0.20248 c 0.0175,-0.0171 0.0298,-0.45143 0.0438,-1.5476 0.0107,-0.83811 0.0176,-1.52666 0.0153,-1.5301 -0.002,-0.003 -0.0485,0.0153 -0.10269,0.0416 -0.06,0.0291 -0.10176,0.0647 -0.10675,0.0909 -0.008,0.0428 -0.0765,2.72396 -0.0755,2.96045 l 5.4e-4,0.1237 0.10053,-0.0576 c 0.0553,-0.0317 0.11146,-0.0683 0.12483,-0.0814 z m -0.0184,-3.09492 0.0942,-0.0552 -0.009,-0.11146 c -0.0124,-0.14941 -0.10144,-0.32426 -0.24306,-0.47723 l -0.11637,-0.12569 -0.12338,0.0683 -0.12339,0.0684 0.12199,0.12713 c 0.0888,0.0926 0.13226,0.1588 0.15975,0.24354 0.0487,0.1502 0.11923,0.31747 0.13383,0.31747 0.006,0 0.0538,-0.0249 0.10564,-0.0552 z m -0.33403,-0.79094 c -1.1e-4,-0.009 -0.83152,-0.49398 -1.01712,-0.59301 -0.0327,-0.0175 -0.39103,-0.22394 -0.79625,-0.45883 -0.40522,-0.23489 -2.71218,-1.56534 -5.12659,-2.95656 l -4.38983,-2.52948 -0.12313,0.0676 c -0.0677,0.0372 -0.12281,0.0724 -0.12243,0.0782 3.8e-4,0.006 2.55025,1.47883 5.66639,3.27335 l 5.6657,3.26277 0.1217,-0.0665 c 0.0669,-0.0366 0.12163,-0.0715 0.12156,-0.0775 z m -1.05731,-0.85228 c 4.2e-4,-0.096 0.0469,-1.98893 0.10335,-4.20643 0.11072,-4.35126 0.11107,-4.07879 -0.005,-4.18752 -0.11556,-0.10794 0.0556,-0.19456 -3.98236,2.01526 -2.06031,1.12753 -3.76816,2.06395 -3.79521,2.08093 -0.0472,0.0296 0.1086,0.12188 3.79892,2.25017 2.11647,1.22061 3.85527,2.21995 3.864,2.22074 0.009,8e-4 0.0162,-0.0771 0.0166,-0.17315 z m -10.97683,-0.40204 c -0.0528,-0.15419 -0.10003,-0.28435 -0.10493,-0.28924 -0.005,-0.005 -0.009,0.0916 -0.009,0.21434 v 0.22325 l 0.10053,0.0658 c 0.0553,0.0362 0.1025,0.0659 0.10492,0.066 0.002,1.3e-4 -0.0388,-0.12591 -0.0916,-0.2801 z m 7.16356,-6.0584 c 1.95672,-1.07092 3.55786,-1.95207 3.5581,-1.95812 2.5e-4,-0.006 -0.0543,-0.041 -0.12125,-0.0778 l -0.12169,-0.0668 -3.74602,2.05116 c -2.06031,1.12814 -3.74601,2.06096 -3.74601,2.07294 0,0.012 0.0476,0.0494 0.10581,0.0831 l 0.10582,0.0613 0.2038,-0.10932 c 0.11208,-0.0601 1.80473,-0.98553 3.76144,-2.05645 z m -6.52864,0.74718 c -0.0224,-0.0363 -0.22945,-0.0173 -0.30351,0.0278 l -0.0733,0.0447 0.0733,0.0382 0.0733,0.0382 0.12038,-0.0659 c 0.0662,-0.0362 0.11564,-0.0736 0.10986,-0.0829 z m 10.26867,-2.76838 c 0.0472,0 0.0354,-0.0111 -0.0674,-0.0632 -0.1157,-0.0587 -0.25727,-0.0828 -0.29052,-0.0496 -0.008,0.008 0.0404,0.0451 0.10704,0.0829 0.0885,0.0501 0.13098,0.0635 0.1574,0.0493 0.0199,-0.0107 0.062,-0.0194 0.0935,-0.0194 z m -27.76828014,31.4133 c 0.0884,-0.65438 0.35661,-1.01265 1.21622004,-1.62437 0.3838,-0.27312 0.68471,-0.55845 0.76885,-0.72904 0.099,-0.20073 0.0705,-0.39461 -0.077,-0.52413 -0.18603,-0.16334 -0.55995,-0.14341 -0.72738,0.0388 -0.058,0.0631 -0.1471,0.25751 -0.16614,0.36253 l -0.0144,0.0794 H 0.65751186 c -0.1959,0 -0.36013,-0.007 -0.36495,-0.0159 -0.005,-0.009 0.004,-0.0915 0.0204,-0.18402 0.0547,-0.31513 0.24644,-0.61495 0.49554,-0.7748 0.43099004,-0.27657 1.14772004,-0.27094 1.57454004,0.0124 0.38384,0.25479 0.52692,0.76705 0.33112,1.18548 -0.15226,0.32538 -0.45417,0.62017 -1.02913,1.00486 -0.45401,0.30377 -0.70899004,0.52923 -0.70899004,0.62692 0,0.0237 0.14340004,0.0287 0.81708004,0.0287 0.64488,0 0.81497,0.006 0.80708,0.0265 -0.005,0.0145 -0.032,0.15265 -0.0588,0.30688 l -0.0488,0.28043 H 1.2463019 1.8587651e-6 Z M 89.76551,51.576087 c -0.0489,-0.0181 -7.01141,-4.01565 -7.04215,-4.04328 -0.0108,-0.01 -0.17765,-2.964934 -0.3708,-6.567184 -0.19315,-3.60226 -0.35575,-6.5533 -0.36134,-6.55788 -0.006,-0.005 -0.82919,-0.48756 -1.83025,-1.07328 -1.00105,-0.58573 -1.86487,-1.09734 -1.91959,-1.13693 -0.2341,-0.16935 -0.33155,-0.40498 -0.34984,-0.84589 -0.0112,-0.27031 -0.009,-0.28832 0.0686,-0.60318 0.0652,-0.26401 0.10519,-0.37466 0.21409,-0.59313 l 0.13388,-0.26858 -10.11059,-8.085852 -10.110578,-8.085856 -2.49206,-2.27e-4 c -1.64711,-1.5e-4 -2.49205,-0.0074 -2.49205,-0.02139 0,-0.01399 0.84627,-0.02116 2.49649,-0.02116 h 2.49649 l 7.974368,6.376627 c 4.3859,3.507145 8.90293,7.119419 10.03785,8.027275 1.13491,0.907857 2.09809,1.676828 2.14038,1.708818 l 0.0769,0.0582 0.0434,-0.0735 c 0.0238,-0.0404 0.14817,-0.196098 0.27628,-0.345977 0.20535,-0.240234 0.26369,-0.293515 0.49258,-0.449898 0.38954,-0.266133 0.67054,-0.349338 0.96936,-0.28703 0.0856,0.01785 0.1918,0.05129 0.23598,0.07432 0.0442,0.02303 4.46891,2.578426 9.83274,5.678666 5.36384,3.10024 9.78936,5.65548 9.83449,5.6783 0.21439,0.10841 0.35882,0.30228 0.47123,0.63251 0.0568,0.16696 0.0605,0.27352 0.0197,0.57303 -0.0705,0.51812 -0.26078,1.00706 -0.54605,1.40307 -0.16078,0.22319 -0.56174,0.6412 -0.71422,0.74459 -0.38918,0.26388 -0.76653,0.35816 -1.00941,0.25221 -0.0563,-0.0245 -0.12625,-0.0518 -0.15554,-0.0606 -0.0293,-0.009 -1.54659,-0.88015 -3.37178,-1.93636 -1.82519,-1.05621 -3.32175,-1.91705 -3.32568,-1.91299 -0.004,0.004 0.11889,2.34554 0.27296,5.20327 0.2554,4.737018 0.27718,5.198838 0.24668,5.229538 -0.0184,0.0185 -0.22869,0.15786 -0.46731,0.30964 -0.23862,0.15178 -0.70112,0.44703 -1.02776,0.65611 -0.47099,0.30147 -0.60292,0.37681 -0.6375,0.36401 z m -9.5e-4,-0.12002 c -0.003,-0.0437 -0.16333,-3.04133 -0.35568,-6.661514 -0.19235,-3.62017 -0.35658,-6.59468 -0.36497,-6.61001 -0.008,-0.0153 -1.58667,-0.93129 -3.5073,-2.03547 l -3.49205,-2.00759 -0.005,0.1095 c -0.003,0.0602 0.15471,3.06616 0.34938,6.67985 l 0.35396,6.570354 3.50245,2.0155 c 1.92634,1.10852 3.50746,2.01622 3.51359,2.01712 0.006,8.9e-4 0.008,-0.0341 0.005,-0.0777 z m -3.30732,-2.55479 c -0.16049,-0.0457 -0.42706,-0.21153 -0.55235,-0.34355 -0.15514,-0.16346 -0.35344,-0.48848 -0.41416,-0.67881 -0.07,-0.21949 -0.078,-0.3463 -0.034,-0.54375 0.0367,-0.16491 0.0396,-0.16976 0.13899,-0.23115 0.14175,-0.0876 0.28644,-0.0975 0.46126,-0.0314 0.1061,0.04 0.17211,0.0876 0.32979,0.23763 0.18838,0.17923 0.20375,0.20085 0.34585,0.48679 0.11873,0.2389 0.15501,0.33549 0.18,0.47912 0.0483,0.27785 0.0441,0.30958 -0.0636,0.47006 -0.0772,0.1151 -0.10986,0.1457 -0.1746,0.16369 -0.0944,0.0262 -0.0953,0.0262 -0.21721,-0.009 z m 0.2592,-0.0464 c 0.009,-0.005 0.0542,-0.066 0.10069,-0.13449 0.0968,-0.14248 0.10291,-0.19553 0.0531,-0.45831 -0.0227,-0.12008 -0.0704,-0.24478 -0.17265,-0.45161 -0.12507,-0.25302 -0.15983,-0.30417 -0.30376,-0.44702 -0.21351,-0.21189 -0.39272,-0.30257 -0.57228,-0.28958 -0.0865,0.006 -0.14737,0.0254 -0.20737,0.0651 -0.0786,0.052 -0.0876,0.0683 -0.12097,0.21813 -0.0414,0.1863 -0.0331,0.3079 0.0354,0.51499 0.0527,0.15929 0.26241,0.51038 0.39147,0.65532 0.0931,0.10454 0.34856,0.26252 0.52497,0.32465 0.0969,0.0341 0.21871,0.0354 0.27137,0.003 z m -0.51316,-4.694454 c -0.16049,-0.0457 -0.42707,-0.21154 -0.55236,-0.34355 -0.15548,-0.16383 -0.35297,-0.4878 -0.4168,-0.68375 -0.0346,-0.10621 -0.0548,-0.22525 -0.0609,-0.35979 -0.008,-0.18115 -0.004,-0.20934 0.0396,-0.28465 0.0636,-0.10887 0.23567,-0.20213 0.37299,-0.20213 0.18248,0 0.32987,0.0762 0.54703,0.28279 0.18838,0.17922 0.20374,0.20085 0.34584,0.48678 0.11873,0.23891 0.15502,0.3355 0.18001,0.47913 0.0483,0.27785 0.044,0.30958 -0.0636,0.47006 -0.0772,0.1151 -0.10985,0.1457 -0.1746,0.16368 -0.0944,0.0262 -0.0953,0.0262 -0.2172,-0.009 z m 0.2592,-0.0464 c 0.009,-0.005 0.0542,-0.066 0.10069,-0.13449 0.0967,-0.14248 0.1029,-0.19553 0.0531,-0.45831 -0.0227,-0.12008 -0.0704,-0.24479 -0.17265,-0.45161 -0.12507,-0.25303 -0.15983,-0.30418 -0.30376,-0.44702 -0.27685,-0.27475 -0.52847,-0.35759 -0.74281,-0.24454 -0.0513,0.0271 -0.11564,0.0818 -0.14299,0.1217 -0.0462,0.0674 -0.049,0.0875 -0.0392,0.28414 0.007,0.14177 0.0263,0.25706 0.0583,0.34921 0.0558,0.16049 0.26747,0.51258 0.39289,0.65342 0.0931,0.10454 0.34855,0.26253 0.52496,0.32466 0.0969,0.0341 0.21871,0.0354 0.27138,0.003 z m 4.35983,6.783154 c 0.55,-0.35102 1.01518,-0.65341 1.03375,-0.67197 0.0309,-0.0309 0.004,-0.5907 -0.32119,-6.615904 -0.19522,-3.62017 -0.35803,-6.62319 -0.3618,-6.67337 l -0.007,-0.0912 -1.03174,0.66013 -1.03174,0.66012 v 0.0875 c 0,0.0481 0.15714,3.01586 0.3492,6.59501 0.19206,3.579164 0.34921,6.548154 0.34921,6.597764 0,0.0496 0.005,0.0902 0.0106,0.0902 0.006,0 0.46058,-0.28719 1.01058,-0.63821 z m 7.94552,-7.230194 c 0.20647,-0.0733 0.48607,-0.23716 0.63453,-0.37198 0.13618,-0.12367 0.40489,-0.43459 0.55147,-0.6381 0.2559,-0.35529 0.44754,-0.86548 0.51204,-1.36318 0.0444,-0.34287 0.016,-0.50725 -0.14123,-0.81675 -0.0756,-0.14887 -0.14281,-0.21507 -0.29898,-0.29461 -0.10765,-0.0548 -0.12729,-0.0577 -0.3492,-0.0509 l -0.23514,0.007 -0.25397,0.12226 c -0.23788,0.11452 -0.26847,0.13663 -0.48293,0.349 -0.38841,0.38463 -0.62874,0.75564 -0.8118,1.25322 -0.11183,0.30398 -0.13329,0.38712 -0.16565,0.64187 -0.0418,0.3288 -0.0335,0.50129 0.0338,0.70622 0.0522,0.15906 0.0912,0.21072 0.25237,0.33475 0.25492,0.19617 0.45307,0.22791 0.75472,0.1209 z m -0.90746,-0.21112 c -0.18375,-0.18873 -0.23558,-0.48924 -0.16882,-0.97885 0.0364,-0.2672 0.0584,-0.35101 0.16962,-0.64802 0.18993,-0.5071 0.40328,-0.82869 0.82127,-1.23791 0.25077,-0.24551 0.33235,-0.30254 0.61073,-0.42695 0.11993,-0.0536 0.18595,-0.0684 0.34658,-0.0778 l 0.19844,-0.0115 -9.75396,-5.63974 c -5.36467,-3.10185 -9.80633,-5.658101 -9.87035,-5.680549 -0.0781,-0.02739 -0.17207,-0.0407 -0.28571,-0.04047 -0.25987,5.33e-4 -0.4499,0.07247 -0.7619,0.288426 -0.21424,0.148287 -0.28978,0.216923 -0.48288,0.438774 -0.23598,0.271106 -0.31055,0.370956 -0.31069,0.415996 -7e-5,0.0211 0.97667,0.8221 1.07582,0.88224 0.0185,0.0112 0.0514,-0.005 0.0952,-0.0464 0.12083,-0.11461 0.19006,-0.13772 0.32753,-0.10935 0.15586,0.0322 0.25015,0.0818 0.3461,0.18217 0.067,0.0701 0.0813,0.10346 0.10452,0.24439 0.0259,0.15711 0.025,0.16731 -0.0242,0.27236 -0.0545,0.11633 -0.16227,0.21735 -0.31286,0.29323 -0.0834,0.042 -0.10198,0.0439 -0.21164,0.0213 -0.15248,-0.0315 -0.24974,-0.0815 -0.33878,-0.1742 -0.12391,-0.12904 -0.1509,-0.40799 -0.0531,-0.54908 0.0328,-0.0474 0.0483,-0.0886 0.037,-0.0987 -0.0736,-0.0664 -1.06414,-0.84873 -1.07461,-0.84873 -0.007,0 -0.0689,0.11191 -0.1371,0.24868 -0.0982,0.19693 -0.1406,0.31606 -0.20395,0.57241 -0.0769,0.31135 -0.0796,0.33442 -0.0701,0.60319 0.008,0.21746 0.0212,0.31467 0.0609,0.43819 0.0936,0.29113 0.0578,0.26629 2.13421,1.48151 1.00444,0.58784 1.83472,1.07198 1.84507,1.07586 0.0103,0.004 0.0188,-0.0544 0.0188,-0.12955 v -0.13661 l 1.0453,-0.68911 c 0.57492,-0.37901 1.05907,-0.69215 1.0759,-0.69586 0.029,-0.006 6.98945,4.0217 7.06491,4.08857 0.0315,0.0279 0.0451,0.2075 0.11236,1.49072 0.0421,0.80243 0.0845,1.46691 0.0942,1.47661 0.0185,0.0185 6.54719,3.80203 6.56418,3.8041 0.005,6.5e-4 -0.0343,-0.0441 -0.0881,-0.0994 z m -7.74177,-5.9893 c 0.55291,-0.35341 1.00757,-0.64924 1.01035,-0.65739 0.005,-0.0134 -6.93825,-4.05576 -6.99315,-4.07162 -0.023,-0.007 -2.08087,1.33761 -2.07948,1.35834 0.002,0.0236 7.01626,4.03723 7.03583,4.02571 0.0116,-0.007 0.47355,-0.30162 1.02645,-0.65504 z m 47.32257,9.976874 c 0,-0.0156 0.0996,-0.61283 0.22136,-1.327164 0.12175,-0.71433 0.21864,-1.30151 0.21531,-1.30484 -0.003,-0.003 -0.091,0.0124 -0.19491,0.035 -0.19734,0.0429 -0.6359,0.0954 -0.68941,0.0825 -0.0267,-0.006 -0.025,-0.041 0.0126,-0.24951 l 0.0436,-0.24203 0.2328,-0.0464 c 0.26448,-0.0528 0.40916,-0.10556 0.56867,-0.2076 0.11002,-0.0704 0.23867,-0.20308 0.30525,-0.31485 l 0.0347,-0.0582 h 0.304 0.30399 l -0.0121,0.0582 c -0.007,0.032 -0.14103,0.80583 -0.29864,1.71961 -0.15761,0.913774 -0.29647,1.711414 -0.30857,1.772524 l -0.022,0.11111 h -0.35829 c -0.28546,0 -0.35828,-0.006 -0.35828,-0.0284 z m -6.51035,-1.987384 c -0.0336,-0.0261 -3.0997,-2.8714 -6.81359,-6.32287 -3.7139,-3.45147 -6.7722,-6.29246 -6.79624,-6.3133 -0.0428,-0.0371 -0.11345,1.8e-4 -3.48019,1.83782 -3.07017,1.67576 -3.44101,1.87288 -3.47886,1.84911 -0.0233,-0.0146 -0.36617,-0.2234 -0.76193,-0.46394 -0.39577,-0.24054 -0.84576,-0.51612 -1,-0.61241 l -0.28042,-0.17508 -3.7e-4,-0.15116 c -2e-4,-0.0831 0.0388,-1.83518 0.0867,-3.89342 0.0479,-2.058233 0.0838,-3.744781 0.0797,-3.747879 -0.0508,-0.03881 -3.69339,-2.136105 -3.70971,-2.135972 -0.0161,1.32e-4 -5.62941,3.049174 -6.97488,3.788624 l -0.0952,0.05234 -0.709,-0.410058 c -0.59652,-0.345008 -1.2211,-0.72709 -1.38455,-0.846992 -0.04,-0.02937 -0.0392,-0.09563 0.0589,-4.419893 0.0548,-2.414541 0.10475,-4.458468 0.1111,-4.54206 l 0.0115,-0.151984 3.88374,-3.338196 c 2.13606,-1.836008 3.8962,-3.350653 3.91142,-3.365877 0.0188,-0.01884 0.0322,-0.12767 0.0419,-0.340581 0.008,-0.172095 0.016,-0.33409 0.0181,-0.359988 0.003,-0.04137 -0.39454,-0.276664 -3.27501,-1.9365449 l -3.27887,-1.889458 0.007,-0.603186 c 0.004,-0.331752 0.0124,-0.812458 0.0196,-1.068234 l 0.0131,-0.465048 4.96294,-2.714898 4.96295,-2.714898019658 0.70214,-9e-6 L 108.46493,1.0803419e-6 117.63577,5.3037731 c 5.04395,2.917074 9.18273,5.3135249 9.19728,5.3254449 0.0341,0.02792 0.0344,0.259835 0.002,1.314894 -0.0246,0.79336 -0.027,0.82319 -0.0692,0.850295 -0.024,0.01545 -1.23417,0.681809 -2.68919,1.480797 -1.45502,0.798988 -2.65581,1.463995 -2.66842,1.477792 -0.0157,0.01717 -0.0751,2.377865 -0.18837,7.485547 -0.11496,5.184142 -0.17254,7.467879 -0.18871,7.484769 -0.0128,0.0134 -0.84961,0.47482 -1.85959,1.02544 -1.00997,0.55062 -1.83378,1.00834 -1.83068,1.01716 0.003,0.009 3.07229,2.86816 6.82043,6.35411 l 6.81479,6.33808 2.50263,0.002 c 1.65329,10e-4 2.50264,0.009 2.50264,0.0227 0,0.014 -0.84561,0.0212 -2.49449,0.0212 h -2.49449 z m -16.87793,-10.95803 3.20036,-1.74607 -0.16526,-0.15382 c -0.0986,-0.0918 -0.17806,-0.14981 -0.197,-0.14387 -0.0175,0.005 -0.0841,0.0292 -0.14815,0.0526 -0.0682,0.025 -0.17035,0.0429 -0.24678,0.0433 -0.11983,6.3e-4 -0.13873,-0.006 -0.23371,-0.081 -0.15923,-0.12587 -0.21185,-0.19933 -0.22827,-0.3187 -0.0256,-0.18637 0.0149,-0.28052 0.20769,-0.48249 0.19589,-0.20522 0.55052,-0.14893 0.7419,0.11775 0.0594,0.0828 0.066,0.10748 0.066,0.24511 0,0.11889 -0.0118,0.17821 -0.0527,0.2656 l -0.0527,0.11253 0.1691,0.15607 c 0.093,0.0858 0.17944,0.15347 0.19206,0.15031 0.0574,-0.0144 3.69589,-2.0148 3.70219,-2.03543 0.004,-0.0128 0.0792,-3.285244 0.16725,-7.272093 0.0881,-3.986849 0.16317,-7.332152 0.16685,-7.434006 0.004,-0.101854 4.2e-4,-0.185188 -0.007,-0.185188 -0.0434,0 -3.48301,1.910754 -3.49537,1.941755 -0.008,0.02041 -0.0212,0.586298 -0.029,1.257517 l -0.0142,1.220399 -0.0769,0.07294 c -0.0423,0.04011 -1.80298,1.555749 -3.91269,3.368078 -2.50825,2.154699 -3.8389,3.311249 -3.84471,3.341677 -0.009,0.04477 -0.20595,8.684576 -0.20398,8.927626 l 9.6e-4,0.11902 0.32275,0.22298 0.32275,0.22297 0.22414,-0.11977 c 0.12328,-0.0659 1.66431,-0.9055 3.42451,-1.86583 z m -2.3685,-0.32426 c -0.30483,-0.0676 -0.54698,-0.32912 -0.65999,-0.7128 -0.0338,-0.1146 -0.0402,-0.20117 -0.0385,-0.51853 0.003,-0.62521 0.0855,-3.418464 0.10471,-3.555622 0.0492,-0.351907 0.14229,-0.679566 0.29149,-1.026475 0.0738,-0.171707 0.14902,-0.294397 0.33068,-0.539693 0.3709,-0.500839 0.64839,-0.764262 1.03359,-0.981167 0.26098,-0.146959 0.63188,-0.231758 0.84479,-0.193148 0.31621,0.05734 0.57478,0.33888 0.69155,0.752964 0.0415,0.147032 0.0419,0.184966 0.0238,1.86247 -0.0196,1.812261 -0.0341,2.128941 -0.11405,2.484881 -0.0582,0.25887 -0.33893,0.90358 -0.50697,1.16405 -0.41299,0.64015 -0.9426,1.08776 -1.43829,1.21561 -0.25248,0.0651 -0.41959,0.0792 -0.5628,0.0475 z m 0.32425,-0.0372 c 0.31642,-0.0474 0.53664,-0.14201 0.85062,-0.36535 0.43418,-0.30885 0.77786,-0.77123 1.08009,-1.45315 0.18562,-0.41879 0.25021,-0.64259 0.27552,-0.9546 l 0.0147,-0.18139 -0.68751,-0.3844 c -0.37813,-0.21143 -0.69266,-0.38441 -0.69896,-0.38441 -0.006,0 -0.018,0.0595 -0.0259,0.13228 -0.0197,0.17963 -0.10315,0.5494 -0.18103,0.80178 -0.10928,0.35416 -0.20724,0.53714 -0.48507,0.90615 -0.22835,0.30329 -0.28989,0.36921 -0.55965,0.59951 -0.22974,0.19613 -0.33452,0.27104 -0.43298,0.30955 -0.15074,0.059 -0.15502,0.0731 -0.0905,0.29862 0.0824,0.28808 0.2005,0.45754 0.40591,0.58232 0.17875,0.10859 0.29562,0.12893 0.53479,0.0931 z m -0.82616,-1.03336 c 0.0851,-0.0397 0.2313,-0.14735 0.41285,-0.30411 0.2393,-0.20662 0.31741,-0.291 0.52602,-0.5682 0.14044,-0.18663 0.27641,-0.39327 0.31864,-0.48427 0.21075,-0.4541 0.36669,-1.14316 0.36613,-1.61773 l -2.3e-4,-0.19183 -0.68129,-0.391539 c -0.3747,-0.215348 -0.7358,-0.422648 -0.80243,-0.460667 l -0.12114,-0.06912 -0.0252,0.121266 c -0.0556,0.267937 -0.0637,0.410499 -0.104,1.826544 -0.0421,1.48057 -0.0527,2.2011 -0.0322,2.2011 0.006,0 0.0704,-0.0276 0.14286,-0.0614 z m 3.07159,-3.36191 c 0.008,-0.765357 0.0158,-1.496123 0.0184,-1.623923 l 0.005,-0.232364 -0.66667,-0.386019 c -0.36666,-0.21231 -0.67196,-0.386323 -0.67843,-0.386696 -0.0103,-5.95e-4 -0.0355,0.886797 -0.0765,2.698472 l -0.0125,0.55096 0.68526,0.38408 c 0.3769,0.21125 0.69126,0.38475 0.6986,0.38557 0.007,8.2e-4 0.0195,-0.62472 0.027,-1.39008 z m -1.43954,-0.0741 c 0.0183,-0.32299 0.0779,-2.836373 0.0676,-2.84672 -0.0273,-0.02732 -0.5009,0.294383 -0.67657,0.459603 -0.0686,0.06448 -0.2498,0.283898 -0.40277,0.487606 -0.20929,0.278713 -0.30025,0.420138 -0.36752,0.57144 -0.0965,0.216988 -0.21668,0.558868 -0.21534,0.612447 5.3e-4,0.0209 0.28662,0.197655 0.77777,0.480513 0.42732,0.246091 0.78318,0.448481 0.79079,0.449741 0.008,10e-4 0.0193,-0.0953 0.0261,-0.21463 z m 1.47329,-1.966945 c 0,-0.267974 -0.15475,-0.659478 -0.3214,-0.813088 -0.22759,-0.209797 -0.46753,-0.255002 -0.83732,-0.157753 l -0.19577,0.05148 v 0.141038 0.141037 l 0.66137,0.382281 c 0.36376,0.210255 0.66852,0.383102 0.67725,0.384105 0.009,0.001 0.0159,-0.05709 0.0159,-0.129103 z m -4.57141,8.145175 c 0,-0.0854 0.0424,-1.99255 0.0943,-4.23818 0.0519,-2.245622 0.0971,-4.211489 0.10053,-4.36859 l 0.006,-0.285639 -0.66667,-0.385655 c -0.36666,-0.212111 -0.67164,-0.38596 -0.67773,-0.386332 -0.006,-3.73e-4 -0.058,2.033645 -0.11529,4.520036 -0.0907,3.93245 -0.10024,4.52314 -0.0736,4.53934 0.17743,0.10783 1.30437,0.7572 1.31635,0.75851 0.009,9.5e-4 0.0159,-0.0681 0.0159,-0.15349 z m -8.44441,-8.66536 c 1.89153,-1.029932 3.44992,-1.883351 3.46309,-1.896485 0.0171,-0.01702 0.0635,-1.790499 0.16173,-6.172147 0.0758,-3.381547 0.13629,-6.149984 0.13448,-6.152084 -0.004,-0.0046 -7.66751,6.580681 -7.72754,6.640318 -0.0414,0.04109 -0.0446,0.13829 -0.14145,4.258475 -0.0545,2.319035 -0.0998,4.360794 -0.10053,4.537244 l -0.001,0.320819 0.32275,0.20009 c 0.32048,0.198687 0.32319,0.199867 0.38624,0.168232 0.0349,-0.01752 1.6111,-0.87453 3.50263,-1.904462 z m -2.28597,-0.371686 c -0.14186,-0.03132 -0.25246,-0.09517 -0.38775,-0.223844 -0.18429,-0.175286 -0.31855,-0.526248 -0.34471,-0.901078 -0.0158,-0.227095 0.047,-2.961849 0.0778,-3.386042 0.0322,-0.443072 0.0931,-0.67732 0.29406,-1.130645 0.20242,-0.45664 0.3177,-0.667002 0.50224,-0.916436 0.22368,-0.302346 0.63106,-0.618048 1.07504,-0.833127 0.22167,-0.107381 0.24862,-0.115294 0.39265,-0.115294 0.21628,0 0.41832,0.0393 0.51789,0.100731 0.21868,0.134923 0.3604,0.331068 0.46836,0.648227 l 0.0496,0.145772 -0.0416,1.706115 c -0.0436,1.790195 -0.0619,2.134899 -0.1295,2.446871 -0.15045,0.693914 -0.42126,1.206076 -0.90173,1.705356 -0.38469,0.399757 -0.70944,0.617721 -1.05194,0.706039 -0.25904,0.0668 -0.38182,0.07797 -0.52047,0.04736 z m 0.30855,-0.03686 c 0.30526,-0.05494 0.52346,-0.151749 0.82399,-0.365591 0.39107,-0.278275 0.85586,-0.846877 1.04464,-1.277956 0.16657,-0.38036 0.2853,-0.811528 0.311,-1.129414 l 0.0147,-0.181754 -0.66712,-0.384394 c -0.36692,-0.211417 -0.6719,-0.384395 -0.67773,-0.384395 -0.006,0 -0.0172,0.06905 -0.0253,0.153443 -0.0346,0.362026 -0.17012,0.829692 -0.32361,1.116423 -0.38976,0.728112 -0.8158,1.20834 -1.32211,1.490265 -0.0874,0.04868 -0.14286,0.09324 -0.14286,0.11483 0,0.06505 0.0782,0.309458 0.13456,0.420757 0.0766,0.151156 0.16424,0.245505 0.31072,0.334488 0.17626,0.107076 0.30948,0.13102 0.51909,0.0933 z m -0.83996,-0.997423 c 0.51687,-0.293777 0.86429,-0.681459 1.27654,-1.424468 0.19251,-0.346981 0.31338,-0.772379 0.35478,-1.248701 0.0132,-0.151326 0.041,-0.979412 0.0618,-1.840192 0.0335,-1.385275 0.0323,-1.724522 -0.006,-1.763256 -0.0131,-0.0131 -0.25355,0.130974 -0.42484,0.254547 -0.49536,0.357371 -0.69167,0.624091 -1.05508,1.43352 -0.2803,0.624298 -0.28062,0.626691 -0.33103,2.423327 -0.0525,1.871244 -0.0534,2.232847 -0.005,2.232847 0.006,0 0.0642,-0.03043 0.12963,-0.06762 z m 3.05154,-2.234008 c 7.5e-4,-0.125134 0.0183,-0.851339 0.039,-1.613787 0.0207,-0.762449 0.0343,-1.392576 0.0303,-1.400283 -0.01,-0.01919 -1.34188,-0.785666 -1.34918,-0.776445 -0.01,0.01254 -0.0829,3.203552 -0.0738,3.230406 0.008,0.0227 1.29817,0.78149 1.33654,0.785831 0.009,9.88e-4 0.0165,-0.100587 0.0172,-0.225722 z m 0.0833,-3.207995 c 0,-0.237906 -0.15928,-0.618388 -0.32146,-0.767882 -0.16058,-0.148019 -0.29953,-0.201575 -0.5571,-0.214721 -0.21016,-0.01073 -0.23227,-0.0078 -0.373,0.04882 l -0.14959,0.06022 0.014,0.106877 c 0.008,0.05878 0.0215,0.114414 0.0306,0.123625 0.0218,0.02214 1.32018,0.772803 1.34068,0.775122 0.009,9.88e-4 0.0159,-0.05844 0.0159,-0.132066 z m -4.57031,8.107561 c 6e-4,-0.130955 0.0468,-2.161947 0.1027,-4.513315 0.0741,-3.117566 0.0953,-4.281723 0.0783,-4.299253 -0.0307,-0.03158 -1.36739,-0.777144 -1.375,-0.766915 -0.003,0.0043 -0.0523,2.030291 -0.10904,4.502139 -0.0897,3.908448 -0.0992,4.496693 -0.0726,4.512866 0.30736,0.186677 1.34701,0.799418 1.35866,0.800755 0.009,0.001 0.0164,-0.105322 0.017,-0.236277 z m 11.47707,-1.206373 c 0.007,-0.09603 0.0137,-0.336514 0.0139,-0.534402 1.7e-4,-0.197887 0.006,-0.409656 0.0136,-0.470596 l 0.0133,-0.110802 3.90043,-3.349582 3.90042,-3.349583 0.001,-0.616476 0.001,-0.616477 -0.43285,-0.01546 -0.43286,-0.01546 -5.15971,-2.97319 c -2.83785,-1.635255 -5.17118,-2.977956 -5.18519,-2.98378 -0.0191,-0.0079 -0.0277,0.07895 -0.0342,0.345802 -0.12632,5.18682 -0.28799,12.293052 -0.28412,12.488569 l 0.005,0.258932 1.8201,1.056923 c 1.00105,0.581308 1.82583,1.057657 1.83283,1.058554 0.007,8.96e-4 0.0188,-0.07694 0.0263,-0.172977 z m 5.23076,-3.572499 c 2.03703,-1.749769 3.77232,-3.240938 3.85621,-3.313709 l 0.15252,-0.132312 -0.6606,-0.380632 c -0.36333,-0.209348 -0.67054,-0.383786 -0.6827,-0.387641 -0.0222,-0.007 -7.79841,6.664069 -7.79685,6.688852 4.5e-4,0.0073 0.30283,0.186156 0.67195,0.397468 0.65217,0.373354 0.67232,0.383147 0.71345,0.346788 0.0233,-0.02058 1.70899,-1.469045 3.74602,-3.218814 z m 4.0337,-3.898544 c 0.001,-0.224078 0.009,-0.769327 0.017,-1.211664 0.008,-0.442336 0.0129,-0.807514 0.0102,-0.811507 -0.003,-0.004 -0.19845,0.09938 -0.43502,0.229714 l -0.43013,0.236973 -0.25926,-0.0138 -0.25926,-0.0138 v 0.611647 0.611647 l 0.66138,0.382281 c 0.36375,0.210255 0.66851,0.383102 0.67724,0.384105 0.009,10e-4 0.0168,-0.181513 0.0179,-0.405591 z m -16.55397,-3.576009 c 2.08853,-1.795949 3.80022,-3.274885 3.80374,-3.286526 0.005,-0.01716 -1.28197,-0.752483 -1.35874,-0.77622 -0.0223,-0.0069 -7.79862,6.664395 -7.79702,6.689067 4.7e-4,0.0073 0.31214,0.185887 0.69259,0.396958 l 0.69173,0.383765 0.0852,-0.07084 c 0.0469,-0.03896 1.79398,-1.540254 3.88251,-3.336203 z m 15.71401,1.406686 c 0.007,-0.311382 0.0187,-0.606754 0.0249,-0.656384 l 0.0113,-0.09024 -0.70504,0.0056 -0.70504,0.0056 -0.0183,0.620206 c -0.01,0.341113 -0.0137,0.624748 -0.008,0.6303 0.009,0.0091 0.78394,0.03963 1.21449,0.04783 l 0.1722,0.0033 z m 5.04941,-2.205618 c 2.61322,-1.435014 4.76236,-2.619869 4.77587,-2.633012 0.0166,-0.01619 0.0305,-0.221891 0.0429,-0.637666 0.0101,-0.337572 0.0167,-0.616736 0.0147,-0.620364 -0.0103,-0.01878 -9.80762,5.341144 -9.8156,5.369912 -0.005,0.01849 -0.0159,0.313659 -0.0239,0.655937 l -0.0146,0.622324 0.13468,-0.07401 c 0.0741,-0.04071 2.27276,-1.24811 4.88598,-2.683123 z m -6.48866,2.163289 c 0.007,-0.299741 0.0181,-0.580526 0.0237,-0.623966 0.01,-0.07285 0.004,-0.08283 -0.0693,-0.128618 C 115.22196,16.664532 97.18323,6.2403411 97.17719,6.2467071 c -0.004,0.004 -0.0103,0.299909 -0.0144,0.657465 l -0.007,0.650102 9.14282,5.2690219 c 5.02856,2.897963 9.14889,5.269754 9.15631,5.270648 0.007,8.93e-4 0.0195,-0.243619 0.0269,-0.54336 z m 6.36168,-3.404157 c 2.68305,-1.461914 4.89971,-2.671662 4.9259,-2.688328 0.0465,-0.02958 0.0476,-0.03932 0.0476,-0.410285 0,-0.370762 -10e-4,-0.380737 -0.0476,-0.410986 -0.0262,-0.01705 -4.15712,-2.4077539 -9.17985,-5.3126739 l -9.13224,-5.28167302 -0.69513,-8.5e-5 -0.69513,-8.5e-5 -4.94023,2.70242002 -4.94023,2.702421 0.006,0.376538 0.006,0.376537 9.16399,5.3012289 9.16398,5.301229 0.71958,8.84e-4 0.71957,8.84e-4 z m -6.62393,1.682976 c -0.20485,-0.03521 -0.26568,-0.05523 -0.38745,-0.127577 -0.0794,-0.0472 -0.20342,-0.141255 -0.27551,-0.209016 l -0.13107,-0.123202 v -0.152402 -0.152402 l 0.13107,-0.123202 c 0.18364,-0.172617 0.38643,-0.287831 0.55863,-0.317387 0.0774,-0.01329 0.27978,-0.02074 0.45502,-0.01674 0.30733,0.007 0.32106,0.0093 0.5248,0.08819 0.29902,0.115775 0.40562,0.186728 0.46928,0.312347 0.084,0.165692 0.0882,0.264802 0.0182,0.420916 -0.072,0.160557 -0.16508,0.227832 -0.48503,0.350756 -0.18785,0.07217 -0.23544,0.08188 -0.42328,0.0864 -0.13656,0.0033 -0.29785,-0.0097 -0.45464,-0.03668 z m 0.79687,-0.06388 c 0.10278,-0.036 0.25062,-0.09962 0.32855,-0.141387 0.12991,-0.06964 0.14637,-0.0864 0.19824,-0.201992 0.0652,-0.145348 0.0617,-0.245205 -0.014,-0.401105 -0.0375,-0.07728 -0.071,-0.107747 -0.18586,-0.16931 -0.077,-0.04129 -0.22579,-0.10532 -0.33055,-0.142291 l -0.19047,-0.06722 -0.38095,0.0075 c -0.34921,0.0068 -0.3895,0.01164 -0.48354,0.05757 -0.17608,0.08601 -0.43691,0.292707 -0.47035,0.372742 -0.0699,0.167204 -0.0223,0.303661 0.15259,0.438097 0.25448,0.195571 0.32999,0.230516 0.58572,0.271051 0.37871,0.06003 0.56792,0.05438 0.79061,-0.02361 z m 7.54134,-4.599012 c -0.31597,-0.09502 -0.45572,-0.179461 -0.58219,-0.351753 -0.14225,-0.193791 -0.12034,-0.350248 0.0775,-0.553371 0.14167,-0.145445 0.30667,-0.215655 0.62109,-0.2642739 0.29708,-0.04594 0.39161,-0.04546 0.67724,0.0034 0.25762,0.04408 0.45844,0.138609 0.60425,0.284427 0.16342,0.163423 0.18693,0.347533 0.0731,0.572227 -0.0498,0.09825 -0.0686,0.113408 -0.25968,0.208966 -0.2498,0.124942 -0.38619,0.151478 -0.76858,0.14954 -0.23076,-0.0012 -0.31372,-0.01038 -0.4427,-0.04917 z m 0.86908,-0.01314 c 0.0621,-0.01178 0.20375,-0.06659 0.3147,-0.121789 0.17652,-0.08782 0.20837,-0.112258 0.25484,-0.195512 0.0753,-0.134892 0.0757,-0.338775 9.9e-4,-0.444359 -0.0688,-0.09722 -0.10815,-0.128427 -0.29134,-0.231255 -0.1323,-0.07426 -0.19022,-0.09198 -0.42271,-0.129277 l -0.26942,-0.04322 -0.29597,0.04536 c -0.36815,0.05642 -0.48354,0.105027 -0.64776,0.272856 -0.14022,0.143305 -0.16898,0.226115 -0.1271,0.365902 0.0329,0.109951 0.21963,0.298882 0.35509,0.359345 0.24397,0.108905 0.40321,0.140426 0.71702,0.141938 0.16429,7.91e-4 0.34953,-0.0082 0.41166,-0.01999 z M 99.6845,6.8553831 c -0.48206,-0.07975 -0.80399,-0.324768 -0.80399,-0.6119 0,-0.185145 0.12136,-0.338113 0.38145,-0.480814 0.20198,-0.110813 0.37358,-0.139139 0.78233,-0.129141 0.29727,0.0073 0.3135,0.01007 0.51828,0.08928 0.23828,0.09217 0.32172,0.148269 0.43652,0.293477 0.15575,0.196994 0.13356,0.367799 -0.0746,0.574153 -0.16025,0.158881 -0.28528,0.210277 -0.65121,0.267684 -0.30719,0.04819 -0.28017,0.04832 -0.5888,-0.0027 z m 0.68783,-0.05352 c 0.42276,-0.07168 0.71491,-0.318157 0.67989,-0.57361 -0.0278,-0.202518 -0.20815,-0.360296 -0.55386,-0.48441 l -0.21068,-0.07564 -0.38095,0.0073 -0.38096,0.0073 -0.18524,0.08893 c -0.23405,0.11236 -0.38498,0.254724 -0.40676,0.383674 -0.0265,0.157093 0.004,0.253424 0.11569,0.36514 0.15296,0.152956 0.36546,0.250519 0.64563,0.296411 0.24779,0.04059 0.36431,0.038 0.67724,-0.01506 z m 7.57669,-4.629886 c -0.29693,-0.108055 -0.38808,-0.167419 -0.50811,-0.330939 -0.14225,-0.193791 -0.12034,-0.350249 0.0775,-0.553371 0.1475,-0.151429 0.30641,-0.216575 0.65986,-0.270495 0.23806,-0.03632 0.31589,-0.04043 0.43263,-0.02286 0.37699,0.05674 0.41058,0.0673 0.62399,0.19622202 0.26697,0.161282 0.32259,0.236989 0.32259,0.439103 0,0.202242 -0.0556,0.277787 -0.32326,0.439506 -0.25284,0.152749 -0.35299,0.174718 -0.78958,0.173206 -0.29054,-0.001 -0.31426,-0.0044 -0.49562,-0.07037 z m 0.94297,0.0077 c 0.15177,-0.02878 0.5045,-0.237026 0.57204,-0.337718 0.0399,-0.05955 0.0501,-0.102758 0.0501,-0.212335 0,-0.193067 -0.047,-0.255652 -0.30791,-0.409685 -0.19829,-0.117078 -0.21956,-0.124486 -0.47372,-0.164952 l -0.2661,-0.04237 -0.28224,0.04292 c -0.35708,0.0543 -0.48382,0.1084 -0.6487,0.276906 -0.18308,0.187111 -0.19258,0.335404 -0.0334,0.521392 0.10596,0.123796 0.21551,0.191959 0.43877,0.273016 0.19225,0.0698 0.20881,0.07213 0.51846,0.07316 0.17592,5.81e-4 0.37061,-0.0086 0.43263,-0.02033 z m -3.8538,10.3125899 -8e-4,-0.354504 -0.64655,-0.370378 c -0.3556,-0.203707 -0.6589,-0.373243 -0.67399,-0.376747 -0.0211,-0.0049 -0.031,0.07203 -0.0429,0.334408 -0.009,0.187427 -0.0105,0.345794 -0.004,0.351926 0.01,0.0096 1.34961,0.764345 1.36414,0.768343 0.003,8.01e-4 0.005,-0.158071 0.004,-0.353048 z m -54.442788,3.316607 c -0.60681,-0.09551 -0.94244,-0.468835 -0.94244,-1.048276 v -0.158203 l 0.35386,0.0058 0.35387,0.0058 0.006,0.148151 c 0.0111,0.27469 0.16625,0.456177 0.41665,0.487462 0.24409,0.0305 0.44324,-0.05285 0.59056,-0.247189 0.0763,-0.100708 0.10065,-0.187568 0.10094,-0.360827 4.9e-4,-0.298411 -0.19208,-0.482632 -0.50451,-0.482632 h -0.11645 l 0.0141,-0.08995 c 0.008,-0.04947 0.029,-0.172095 0.0472,-0.272496 l 0.0331,-0.182547 0.15123,-0.0098 c 0.41307,-0.02674 0.66073,-0.325452 0.56266,-0.678624 -0.0511,-0.183971 -0.22251,-0.293078 -0.46047,-0.293078 -0.25789,0 -0.4289,0.15238 -0.49314,0.439418 l -0.0254,0.113503 h -0.35642 c -0.41148,0 -0.3821,0.02254 -0.31461,-0.241359 0.11203,-0.438046 0.40657,-0.737003 0.8365,-0.849039 0.18998,-0.04951 0.59124,-0.04466 0.80111,0.0097 0.4175,0.10811 0.68258,0.391795 0.73171,0.783089 0.0523,0.416307 -0.1219,0.748171 -0.48913,0.931979 l -0.16696,0.08357 0.0884,0.04509 c 0.1181,0.06026 0.27456,0.219931 0.33208,0.338918 0.10121,0.209354 0.11003,0.508585 0.0227,0.768718 -0.11773,0.350553 -0.41375,0.609148 -0.81586,0.712711 -0.19188,0.04942 -0.57072,0.06948 -0.75732,0.04011 z"
     id="path2" /></svg>
